<?xml version="1.0" encoding="utf-8"?>
<svg height="1024" viewBox="0 0 1024 1024" width="1024" xmlns="http://www.w3.org/2000/svg" xmlns:xlink="http://www.w3.org/1999/xlink">
<path d="M0 0L1024 0L1024 1024L0 1024L0 0Z" fill="#FEFEFE"/>
<path d="M420.37 133.547C426.849 129.176 434.169 125.735 441.329 122.629C470.31 110.055 502.212 104.737 533.501 110.75C545.773 113.108 558.307 116.71 569.666 121.933C600.083 135.921 656.95 177.619 675.206 204.731C676.476 206.616 677.415 208.723 678.624 210.652C682.615 217.023 686.989 223.189 690.369 229.923C705.686 260.494 710.197 295.351 703.168 328.814C695.574 364.761 673.35 405.917 655.517 438.153C650.118 447.914 644.871 457.825 639.261 467.461C636.869 471.567 634.087 475.44 631.656 479.523C628.191 485.34 625.049 491.348 621.518 497.127C614.137 509.208 606.01 520.811 598.883 533.056C597.131 536.067 594.757 539.403 593.519 542.612C585.917 552.776 580.095 564.008 572.876 574.412C571.152 576.897 569.397 579.892 567.26 582.022L566.674 582.709C555.963 595.394 541.598 622.882 526.359 628.865C522.455 630.476 518.816 630.651 514.65 630.165C507.364 629.08 502.687 624.387 496.139 622.784C486.927 615.954 479.742 606.792 471.033 599.417C468.498 596.386 459.425 586.195 456.096 585.183L456.385 584.867C456.1 583.473 455.719 583.467 454.689 582.56C449.035 576.881 427.275 546.47 423.027 545.117L423.467 544.78C423.256 543.434 423.04 543.621 422.011 542.841C420.337 538.082 400.825 512.162 396.139 505.513C386.778 492.23 377.378 478.595 368.856 464.764C348.286 431.379 309.952 368.312 304.095 330.66C301.965 316.967 303.247 302.813 306.484 289.4C309.972 274.949 315.691 260.789 321.948 247.334C343.583 200.81 376.255 160.37 420.37 133.547Z" fill="#CED0E6"/>
<defs>
<linearGradient gradientUnits="userSpaceOnUse" id="gradient_0" x1="362.29202" x2="456.05103" y1="476.18326" y2="393.75693">
<stop offset="0" stop-color="#7C7EB3"/>
<stop offset="1" stop-color="#A1A2CA"/>
</linearGradient>
</defs>
<path d="M420.37 133.547C418.721 136.928 411.712 139.817 408.4 141.976C399.484 147.787 391.319 155.803 383.281 162.78C359.429 183.484 338.075 215.319 324.555 243.723C323.718 245.482 319.646 252.888 320.48 254.44C320.638 254.733 320.927 254.935 321.138 255.193C323.109 257.589 321.598 260.6 324.114 262.963C330.669 269.12 339.551 272.689 347.579 276.437C350.249 277.683 353.292 278.41 355.758 280.058C357.164 280.997 361.043 285.29 361.816 286.878C362.552 288.387 362.206 292.423 361.921 294.095C361.911 294.154 361.871 294.203 361.853 294.26C361.568 295.157 361.348 296.017 361.182 296.944L361.196 295.271L362.001 295.475C363.865 290.47 365.552 285.174 367.98 280.418C371.174 274.164 375.637 268.471 377.531 261.644L378.117 262.209C378.083 264.44 378.25 262.041 377.736 264.015C377.65 264.345 377.667 264.693 377.625 265.031C377.071 269.485 373.218 272.975 371.785 277.202C370.135 282.068 366.811 286.441 364.911 291.253C362.729 296.781 361.914 304.004 358.804 308.977C356.944 312.353 356.077 316.807 355.25 320.593C351.923 335.835 351.429 350.806 355.034 366.045C355.575 385.11 371.734 407.735 378.807 425.835C379.72 431.599 383.594 436.978 386.307 442.088C398.045 464.199 411.628 484.797 424.863 505.981C432.923 518.882 440.588 532.11 448.95 544.811C457.601 557.95 466.733 570.767 475.743 583.657C481.858 592.404 487.8 601.405 494.398 609.801C500.53 617.604 507.557 623.393 514.65 630.165C507.364 629.08 502.687 624.387 496.139 622.784C486.927 615.954 479.742 606.792 471.033 599.417C468.498 596.386 459.425 586.195 456.096 585.183L456.385 584.867C456.1 583.473 455.719 583.467 454.689 582.56C449.035 576.881 427.275 546.47 423.027 545.117L423.467 544.78C423.256 543.434 423.04 543.621 422.011 542.841C420.337 538.082 400.825 512.162 396.139 505.513C386.778 492.23 377.378 478.595 368.856 464.764C348.286 431.379 309.952 368.312 304.095 330.66C301.965 316.967 303.247 302.813 306.484 289.4C309.972 274.949 315.691 260.789 321.948 247.334C343.583 200.81 376.255 160.37 420.37 133.547Z" fill="url(#gradient_0)"/>
<path d="M424.336 307.99C432.573 275.685 460.35 243.394 488.757 226.639C513.013 212.331 540.798 205.872 568.477 213.079C593.354 219.556 612.48 235.804 625.332 257.771C640.832 284.263 641.413 316.33 633.608 345.434C624.523 379.315 601.922 411.517 571.091 428.994C563.459 433.319 555.255 436.477 547.136 439.748C533.294 446.925 510.339 446.89 495.305 444.782C472.493 441.551 451.938 429.285 438.263 410.743C421.998 388.742 415.004 361.243 418.781 334.145C419.359 325.527 420.943 315.944 424.336 307.99Z" fill="#FED489"/>
<defs>
<linearGradient gradientUnits="userSpaceOnUse" id="gradient_1" x1="425.23907" x2="458.36832" y1="356.75076" y2="354.7164">
<stop offset="0" stop-color="#D99546"/>
<stop offset="1" stop-color="#F9BB61"/>
</linearGradient>
</defs>
<path d="M443.253 273.501C444.167 279.865 445.862 277.766 447.111 280.969C448.021 283.299 447.568 286.87 447.522 289.355C446.174 292.362 443.507 296.74 443.185 299.965C440.564 305.702 438.691 311.73 436.915 317.772C431.819 326.64 431.536 352.092 432.379 362.482C432.814 367.84 433.919 373.126 435.307 378.313C436.67 383.408 440.884 398.078 445.441 401.122C447.309 403.384 449.145 405.66 451.164 407.789C451.55 408.196 451.418 408.004 451.631 408.477C455.451 415.804 463.686 420.063 467.938 426.857C476.646 435.199 494.632 441.098 506.356 442.703C510.605 443.284 514.875 443.036 519.091 443.544C524.415 443.798 530.245 442.287 535.345 440.907L538.502 440.211C540.857 440.246 543.022 440.162 545.362 439.845C546.391 439.705 545.943 439.749 547.136 439.748C533.294 446.925 510.339 446.89 495.305 444.782C472.493 441.551 451.938 429.285 438.263 410.743C421.998 388.742 415.004 361.243 418.781 334.145L420.841 334.034C421.98 323.774 424.712 314.121 427.76 304.305C432.549 293.705 436.703 283.208 443.253 273.501Z" fill="url(#gradient_1)"/>
<path d="M418.781 334.145L420.841 334.034C417.98 363.046 424.05 390.331 442.785 413.215C443.732 414.36 444.71 415.479 445.718 416.571C445.71 413.43 445.812 410.237 445.596 407.106C449.59 411.091 453.197 415.52 457.267 419.399C458.514 419.554 457.991 419.293 458.797 420.042C461.442 422.499 464.743 425.18 467.938 426.857C476.646 435.199 494.632 441.098 506.356 442.703C510.605 443.284 514.875 443.036 519.091 443.544C524.415 443.798 530.245 442.287 535.345 440.907L538.502 440.211C540.857 440.246 543.022 440.162 545.362 439.845C546.391 439.705 545.943 439.749 547.136 439.748C533.294 446.925 510.339 446.89 495.305 444.782C472.493 441.551 451.938 429.285 438.263 410.743C421.998 388.742 415.004 361.243 418.781 334.145Z" fill="#2A1973"/>
<path d="M445.596 407.106C449.59 411.091 453.197 415.52 457.267 419.399C458.514 419.554 457.991 419.293 458.797 420.042C461.442 422.499 464.743 425.18 467.938 426.857C476.646 435.199 494.632 441.098 506.356 442.703C510.605 443.284 514.875 443.036 519.091 443.544C510.176 445.511 493.682 443.325 485.179 440.15C470.992 436.768 455.325 427.556 445.718 416.571C445.71 413.43 445.812 410.237 445.596 407.106Z" fill="#E59D4D"/>
<path d="M424.336 307.99C432.573 275.685 460.35 243.394 488.757 226.639C513.013 212.331 540.798 205.872 568.477 213.079C593.354 219.556 612.48 235.804 625.332 257.771C640.832 284.263 641.413 316.33 633.608 345.434C624.523 379.315 601.922 411.517 571.091 428.994C563.459 433.319 555.255 436.477 547.136 439.748C545.943 439.749 546.391 439.705 545.362 439.845C543.022 440.162 540.857 440.246 538.502 440.211C564.446 432.489 589.381 416.831 605.354 394.613C607.888 392.59 610.413 388.092 612.16 385.367C630.349 356.986 640.783 320.158 633.295 286.716C627.548 261.049 613.161 239.821 590.984 225.768C589.388 224.773 587.777 223.936 586.076 223.136C581.374 220.25 575.857 218.578 570.589 217.074C560.989 213.63 550.609 213.342 540.526 213.431C509.626 214.13 480.68 230.64 459.741 252.524C453.933 258.594 447.158 265.984 443.253 273.501C436.703 283.208 432.549 293.705 427.76 304.305C424.712 314.121 421.98 323.774 420.841 334.034L418.781 334.145C419.359 325.527 420.943 315.944 424.336 307.99Z" fill="#14096E"/>
<path d="M443.253 273.501C447.158 265.984 453.933 258.594 459.741 252.524C480.68 230.64 509.626 214.13 540.526 213.431C537.184 214.901 533.169 214.944 529.609 215.872L530.062 215.928C526.485 216.725 518.702 218.08 515.993 220.559C501.009 228.023 480.407 239.855 469.564 252.589C467.854 254.596 466.984 257.096 465.378 259.129C463.4 261.631 460.832 263.452 459.199 266.268C455.232 273.11 451.355 283.568 447.522 289.355C447.568 286.87 448.021 283.299 447.111 280.969C445.862 277.766 444.167 279.865 443.253 273.501Z" fill="#E59D4D"/>
<path d="M540.526 213.431C550.609 213.342 560.989 213.63 570.589 217.074C565.289 217.267 560.025 216.741 554.738 216.901C536.213 217.361 518.101 222.467 502.063 231.75C496.923 234.741 492.53 239.053 487.382 241.889C477.189 248.539 469.395 256.59 462.398 266.57C456.896 274.417 452.498 282.898 447.973 291.326C446.924 293.28 444.727 298.945 443.185 299.965C443.507 296.74 446.174 292.362 447.522 289.355C451.355 283.568 455.232 273.11 459.199 266.268C460.832 263.452 463.4 261.631 465.378 259.129C466.984 257.096 467.854 254.596 469.564 252.589C480.407 239.855 501.009 228.023 515.993 220.559C518.702 218.08 526.485 216.725 530.062 215.928L529.609 215.872C533.169 214.944 537.184 214.901 540.526 213.431Z" fill="#F9CA80"/>
<path d="M605.354 394.613L604.918 394.001C608.315 386.826 616.074 379.44 618.664 371.799C620.358 366.799 623.557 362.367 625.403 357.396C633.822 334.716 637.921 307.79 631.73 284.145C626.863 265.556 617.077 247.728 602.362 235.185C600.384 233.499 598.424 231.353 596.133 230.109C595.118 229.558 595.552 229.582 594.661 229.836C595.26 230.966 596.02 232.099 596.149 233.392C593.534 232.72 591.039 230.271 588.728 228.843C581.339 224.28 566.773 222.109 558.203 221.871C546.036 221.533 523.594 224.315 512.585 229.01C506.242 231.715 496.482 239.574 491.241 240.787C491.342 240.638 491.431 240.482 491.544 240.342C496.612 234.048 515.632 226.33 523.227 224.037C527.567 222.726 531.97 221.914 536.447 221.23C542.974 220.231 566.125 217.923 571.477 221.855C577.716 223.169 584.687 226.958 590.984 225.768C613.161 239.821 627.548 261.049 633.295 286.716C640.783 320.158 630.349 356.986 612.16 385.367C610.413 388.092 607.888 392.59 605.354 394.613Z" fill="#F9CA80"/>
<path d="M451.631 408.477C451.797 408.59 451.965 408.699 452.129 408.814C458.816 413.511 463.765 420.714 470.046 425.95C477.567 432.219 489.02 433.781 498.014 437.002C500.868 438.024 504.054 439.997 507.004 440.49C508.65 440.765 510.591 440.638 512.293 440.748C517.097 441.055 532.769 440.026 535.345 440.907C530.245 442.287 524.415 443.798 519.091 443.544C514.875 443.036 510.605 443.284 506.356 442.703C494.632 441.098 476.646 435.199 467.938 426.857C463.686 420.063 455.451 415.804 451.631 408.477Z" fill="#F9CA80"/>
<path d="M436.915 317.772C437.865 320.104 434.939 328.907 434.526 331.833C433.69 337.759 433.211 343.893 433.316 349.88C433.392 354.239 435.537 365.271 434.702 368.282C435.48 368.819 435.535 369.037 436.517 369.032C436.401 368.865 436.267 368.71 436.169 368.533C435.374 367.108 435.193 365.031 435.507 363.451C436.698 364.277 442.231 383.114 442.167 385.166C442.159 385.4 442.069 385.624 442.021 385.853C441.293 384.68 440.843 383.781 439.701 382.959L439.438 382.047C438.985 382.457 439.006 382.279 439.027 382.943C439.084 384.711 440.135 386.304 440.25 388.259C443.776 391.919 449.37 397.269 450.976 402.104L450.868 402.42C448.93 401.392 448.312 398.889 446.298 398.198L446.144 400.293L445.895 399.58C445.302 397.919 444.368 395.057 442.838 394.055C442.67 393.945 442.47 393.895 442.286 393.816C442.434 396.565 445.08 398.333 445.441 401.122C440.884 398.078 436.67 383.408 435.307 378.313C433.919 373.126 432.814 367.84 432.379 362.482C431.536 352.092 431.819 326.64 436.915 317.772Z" fill="#E59D4D"/>
<path d="M587.125 262.081C593.029 262.234 599.145 268.085 603.048 272.172C605.307 274.537 607.606 277.412 607.58 280.836C607.571 281.954 607.289 283.068 607.028 284.15C604.046 290.202 576.341 324.092 572.035 327.099C568.975 331.178 548.87 355.646 546.384 357.049C541.438 364.009 535.694 371.413 529.683 377.472C525.377 382.792 519.079 392.036 513.472 395.507C512.522 396.251 511.786 396.572 510.552 396.619C509.044 396.677 507.779 395.907 506.594 395.08C498.775 389.624 491.589 382.335 484.307 376.122C473.648 367.03 462.16 358.225 452.217 348.381C450.342 346.371 449.414 344.562 449.339 341.76C449.183 335.932 453.384 330.607 457.302 326.691C457.769 325.995 458.252 325.455 458.835 324.859C461.81 321.816 464.531 319.586 468.96 319.52C475.218 323.054 480.808 328.835 486.304 333.447C494.258 340.122 502.643 346.499 509.994 353.846C520.703 341.956 530.512 329.347 540.611 316.943C544.77 311.836 548.905 305.741 553.706 301.266C557.778 294.489 564.053 288.01 569.023 281.807C573.505 276.212 577.877 269.651 582.928 264.596C584.121 263.402 585.595 262.738 587.125 262.081Z" fill="#998EB8"/>
<path d="M605.238 282.109L606.732 280.608C606.679 280.941 606.621 281.273 606.574 281.606C606.421 282.666 606.525 283.185 607.028 284.15C604.046 290.202 576.341 324.092 572.035 327.099C568.975 331.178 548.87 355.646 546.384 357.049C541.438 364.009 535.694 371.413 529.683 377.472C525.377 382.792 519.079 392.036 513.472 395.507C512.522 396.251 511.786 396.572 510.552 396.619C509.044 396.677 507.779 395.907 506.594 395.08C498.775 389.624 491.589 382.335 484.307 376.122C473.648 367.03 462.16 358.225 452.217 348.381C452.108 346.859 452.11 345.349 452.111 343.824C453.262 345.543 454.476 347.018 456.001 348.417C460.416 352.467 509.754 393.742 510.211 393.871C510.954 394.081 512.014 393.533 512.737 393.299C515.169 389.178 526.05 377.838 529.843 373.537C533.578 368.637 537.472 363.861 541.519 359.216C545.714 353.64 550.624 348.399 555.129 343.044C559.925 337.34 564.593 330.926 570.008 325.844C577.466 314.81 600.61 293.182 604.498 282.912L605.238 282.109Z" fill="#14096E"/>
<path d="M553.706 301.266C557.778 294.489 564.053 288.01 569.023 281.807C573.505 276.212 577.877 269.651 582.928 264.596C584.121 263.402 585.595 262.738 587.125 262.081C589.029 263.537 590.772 264.654 591.92 266.816C590.428 266.202 589.579 265.53 587.939 266.139C583.151 267.918 578.91 273.449 575.912 277.429C572.973 283.271 567.386 288.76 563.29 293.906C557.668 300.968 552.24 308.13 546.473 315.088C534.961 328.978 520.838 343.08 514.228 360.078C498.376 348.047 483.231 334.382 467.545 321.942L468.96 319.52C475.218 323.054 480.808 328.835 486.304 333.447C494.258 340.122 502.643 346.499 509.994 353.846C520.703 341.956 530.512 329.347 540.611 316.943C544.77 311.836 548.905 305.741 553.706 301.266Z" fill="#2A1973"/>
<path d="M553.706 301.266C557.778 294.489 564.053 288.01 569.023 281.807C573.505 276.212 577.877 269.651 582.928 264.596C584.121 263.402 585.595 262.738 587.125 262.081C589.029 263.537 590.772 264.654 591.92 266.816C590.428 266.202 589.579 265.53 587.939 266.139C583.151 267.918 578.91 273.449 575.912 277.429C570.574 281.605 558.265 299.396 553.706 301.266Z" fill="#14096E"/>
<path d="M587.125 262.081C593.029 262.234 599.145 268.085 603.048 272.172C605.307 274.537 607.606 277.412 607.58 280.836C607.571 281.954 607.289 283.068 607.028 284.15C606.525 283.185 606.421 282.666 606.574 281.606C606.621 281.273 606.679 280.941 606.732 280.608L605.238 282.109C605.222 281.948 605.207 281.787 605.188 281.627C604.487 275.915 597.275 271.52 593.043 268.138L591.92 266.816C590.772 264.654 589.029 263.537 587.125 262.081Z" fill="#2A1973"/>
<path d="M593.043 268.138C597.275 271.52 604.487 275.915 605.188 281.627C605.207 281.787 605.222 281.948 605.238 282.109L604.498 282.912C604.259 282.785 604.001 282.687 603.78 282.53C600.655 280.313 592.556 274.725 592.195 270.75C592.068 269.344 592.176 269.127 593.043 268.138Z" fill="#CED0E6"/>
<path d="M457.302 326.691C457.14 329.145 454.967 330.76 454.676 333.448C452.833 336.847 451.092 339.829 452.111 343.824C452.11 345.349 452.108 346.859 452.217 348.381C450.342 346.371 449.414 344.562 449.339 341.76C449.183 335.932 453.384 330.607 457.302 326.691Z" fill="#2A1973"/>
<path d="M457.302 326.691C457.769 325.995 458.252 325.455 458.835 324.859C461.81 321.816 464.531 319.586 468.96 319.52L467.545 321.942C462.051 323.903 458.297 329.135 454.676 333.448C454.967 330.76 457.14 329.145 457.302 326.691Z" fill="#14096E"/>
<path d="M593.519 542.612C602.081 542.558 610.815 545.609 618.956 548.016C648.835 556.849 686.007 571.158 708.495 593.335C721.249 605.913 725.451 617.29 725.483 634.936C725.488 637.825 726.018 659.88 725.767 660.905C724.873 673.808 717.619 684.101 708.073 692.389C652.057 741.024 543.531 749.158 472.328 743.777C425.331 740.225 372.203 730.299 331.752 704.796C323.506 699.597 315.255 693.57 308.936 686.073C308.263 685.274 307.637 684.49 307.085 683.602C306.981 683.535 306.863 683.485 306.772 683.401C294.388 671.994 296.427 644.395 296.505 629.122C296.733 620.004 299.593 612.457 304.748 605.034C307.006 601.288 309.806 598.125 312.844 595.002C315.683 591.126 320.471 587.187 324.304 584.291C346.623 564.171 393.127 550.055 422.011 542.841C423.04 543.621 423.256 543.434 423.467 544.78L423.027 545.117C427.275 546.47 449.035 576.881 454.689 582.56C455.719 583.467 456.1 583.473 456.385 584.867L456.096 585.183C459.425 586.195 468.498 596.386 471.033 599.417C479.742 606.792 486.927 615.954 496.139 622.784C502.687 624.387 507.364 629.08 514.65 630.165C518.816 630.651 522.455 630.476 526.359 628.865C541.598 622.882 555.963 595.394 566.674 582.709L567.26 582.022C569.397 579.892 571.152 576.897 572.876 574.412C580.095 564.008 585.917 552.776 593.519 542.612Z" fill="#F9CA80"/>
<defs>
<linearGradient gradientUnits="userSpaceOnUse" id="gradient_2" x1="475.16187" x2="547.64093" y1="567.68719" y2="684.29999">
<stop offset="0" stop-color="#E9AA61"/>
<stop offset="1" stop-color="#FFDD90"/>
</linearGradient>
</defs>
<path d="M567.26 582.022C585.423 588.661 610.624 596.818 619.312 615.916C622.193 622.249 622.643 629.445 620.194 636.004C615.163 649.477 599.39 658.202 587.001 663.612C545.578 681.702 482.781 681.716 440.762 664.928C427.326 659.559 410.201 650.436 404.278 636.321C401.609 629.962 401.459 622.847 404.131 616.467C408.465 606.119 420.155 596.354 430.347 592.231C437.055 587.467 446.879 585.086 454.689 582.56C455.719 583.467 456.1 583.473 456.385 584.867L456.096 585.183C459.425 586.195 468.498 596.386 471.033 599.417C479.742 606.792 486.927 615.954 496.139 622.784C502.687 624.387 507.364 629.08 514.65 630.165C518.816 630.651 522.455 630.476 526.359 628.865C541.598 622.882 555.963 595.394 566.674 582.709L567.26 582.022Z" fill="url(#gradient_2)"/>
<path d="M567.26 582.022C585.423 588.661 610.624 596.818 619.312 615.916C622.193 622.249 622.643 629.445 620.194 636.004C615.163 649.477 599.39 658.202 587.001 663.612C545.578 681.702 482.781 681.716 440.762 664.928C427.326 659.559 410.201 650.436 404.278 636.321C401.609 629.962 401.459 622.847 404.131 616.467C408.465 606.119 420.155 596.354 430.347 592.231C437.055 587.467 446.879 585.086 454.689 582.56C455.719 583.467 456.1 583.473 456.385 584.867L456.096 585.183C448.873 587.372 441.787 589.746 434.826 592.678C423.996 598.295 410.031 606.649 406.133 619.076C404.108 625.53 405.272 632.164 408.519 637.999C417.605 654.329 440.903 663.161 457.826 667.812C499.349 679.222 558.778 677.072 596.372 655.509C605.079 650.515 614.768 643.467 617.467 633.226C619.227 626.55 617.884 619.547 614.324 613.697C604.84 598.108 583.313 590.088 566.589 585.522C557.715 597.33 543.077 621.248 531.612 628.734C527.666 631.311 523.611 632.328 519.041 633.07C509.577 631.798 503.518 628.755 496.139 622.784C502.687 624.387 507.364 629.08 514.65 630.165C518.816 630.651 522.455 630.476 526.359 628.865C541.598 622.882 555.963 595.394 566.674 582.709L567.26 582.022Z" fill="#14096E"/>
<path d="M471.033 599.417C479.742 606.792 486.927 615.954 496.139 622.784C503.518 628.755 509.577 631.798 519.041 633.07C518.379 633.58 517.832 634.077 516.999 634.317C508.793 636.689 479.755 633.453 469.579 632.756C472.742 631.069 480.867 632.227 484.712 631.999C484.356 631.56 479.254 630.695 478.322 630.407C473.911 629.044 467.875 626.234 464.306 623.364C462.471 621.889 461.199 620.573 460.894 618.174C462.222 612.407 471.809 610.174 475.889 606.118C476.012 605.996 476.132 605.872 476.253 605.748C474.729 604.29 471.115 601.407 471.033 599.417Z" fill="#E59D4D"/>
<path d="M306.078 607.388C306.955 606.233 307.889 605.122 308.808 604C308.171 606.447 306.797 608.416 305.533 610.579C302.221 616.249 299.716 621.803 299.741 628.485C299.743 629.056 299.739 629.624 299.748 630.195C301.171 632.313 308.772 645.433 310.133 646.086C309.18 642.012 302.879 635.549 305.395 631.556C305.473 631.432 305.586 631.334 305.682 631.223C306.377 632.01 306.471 632.728 306.747 633.723C309.492 643.577 318.774 659.433 327.99 664.355C335.141 668.175 343.337 671.268 350.069 675.852C341.607 672.981 335.956 669.71 328.034 666.038C331.117 669.181 334.217 672.587 337.789 675.174C347.849 682.462 354.002 683.787 353.765 698.279C353.72 701.035 351.765 710.414 353.217 711.962C354.949 713.808 358.717 714.593 361.01 715.775C364.469 717.558 368.456 718.749 372.122 720.063C386.324 725.151 400.535 728.901 415.256 732.103C417.31 732.549 426.901 734.251 427.124 734.468C427.335 734.675 427.313 735.028 427.407 735.308C418.872 734.976 408.925 731.975 400.651 729.806C375.298 723.161 348.189 714.007 326.829 698.353C321.258 694.27 316.147 689.352 311.308 684.429C295.953 666.021 298.455 649.293 298.554 626.871C299.819 619.438 302.101 613.795 306.078 607.388Z" fill="#E59D4D"/>
<path d="M422.011 542.841C423.04 543.621 423.256 543.434 423.467 544.78L423.027 545.117C390.44 553.238 352.885 564.995 326.124 586.059C322.252 589.517 318.258 592.898 314.693 596.676C312.849 598.782 309.91 601.435 308.808 604C307.889 605.122 306.955 606.233 306.078 607.388C302.101 613.795 299.819 619.438 298.554 626.871C298.455 649.293 295.953 666.021 311.308 684.429C316.147 689.352 321.258 694.27 326.829 698.353C348.189 714.007 375.298 723.161 400.651 729.806C408.925 731.975 418.872 734.976 427.407 735.308C430.447 735.945 433.543 736.416 436.617 736.859C458.979 740.176 481.533 742.041 504.136 742.442C565.59 743.402 649.74 733.503 700.188 695.509C713.381 685.574 722.9 674.053 725.135 657.309L725.214 656.681C725.726 657.829 725.664 659.626 725.767 660.905C724.873 673.808 717.619 684.101 708.073 692.389C652.057 741.024 543.531 749.158 472.328 743.777C425.331 740.225 372.203 730.299 331.752 704.796C323.506 699.597 315.255 693.57 308.936 686.073C308.263 685.274 307.637 684.49 307.085 683.602C306.981 683.535 306.863 683.485 306.772 683.401C294.388 671.994 296.427 644.395 296.505 629.122C296.733 620.004 299.593 612.457 304.748 605.034C307.006 601.288 309.806 598.125 312.844 595.002C315.683 591.126 320.471 587.187 324.304 584.291C346.623 564.171 393.127 550.055 422.011 542.841Z" fill="#14096E"/>
<path d="M754.516 803.562C756.718 803.398 759.043 803.352 761.197 803.895C763.171 804.394 765.125 805.386 766.557 806.852C770.357 810.742 773.001 816.415 775.924 821.002C783.239 832.482 790.63 843.96 797.456 855.74C797.571 840.168 797.113 824.546 797.659 808.984C799.108 806.918 800.396 805.624 802.464 804.136C806.432 803.707 811.029 803.175 814.613 805.336C815.946 806.141 817.04 807.332 817.335 808.874C818.293 813.887 817.919 819.417 817.928 824.505L817.948 846.75C817.951 859.176 818.86 874.693 817.676 886.846C817.542 888.224 817.27 889.419 816.439 890.546C814.659 892.96 812.108 893.098 809.342 893.45C806.476 893.264 803.635 892.907 800.786 892.558C793.022 885.24 787.551 873.585 781.874 864.493C776.823 856.51 771.688 848.58 766.469 840.706C766.917 849.544 768.512 883.256 765.523 889.68C764.781 891.275 763.733 892.569 762.001 893.136C758.433 894.305 752.749 893.947 749.452 892.081C748.135 891.336 747.343 890.457 746.933 888.963C744.661 880.71 746.373 839.196 746.458 828.403C746.5 823.083 745.836 817.632 746.173 812.341C746.294 810.452 746.782 808.579 747.795 806.965C749.286 804.591 751.989 804.132 754.516 803.562Z" fill="#F9CA80"/>
<path d="M311.77 804.171C312.407 804.131 313.046 804.103 313.684 804.089C316.889 804.026 319.661 804.177 321.988 806.615C323.402 808.096 324.09 810.025 324.407 812.016C325.436 818.468 324.467 832.837 324.502 840.139C335.984 840.25 347.512 839.896 358.996 839.759C358.991 834.326 358.138 812.163 359.244 808.683C359.691 807.276 360.263 806.591 361.579 805.918C365.109 804.115 371.652 803.956 375.266 805.587C376.529 806.157 377.888 807.11 378.275 808.497C379.749 813.774 380.16 887.444 378.064 890.464C376.372 892.9 372.54 893.116 369.858 893.522C367.132 893.283 363.146 893.294 361.161 891.118C357.576 887.187 359.079 861.399 359.078 855.22L324.456 854.844C324.425 861.431 326.276 887.03 322.411 891.227C320.289 893.532 315.708 893.254 312.774 893.059C309.609 892.848 307.194 892.309 305.055 889.875C302.808 879.743 304.247 851.904 304.31 839.819C304.359 830.337 303.764 820.615 304.288 811.167C304.36 809.877 304.344 808.398 305.128 807.318C306.718 805.125 309.274 804.637 311.77 804.171Z" fill="#464675"/>
<path d="M621.617 803.625C625.213 803.341 628.559 803.689 631.633 805.753C633.144 806.767 634.257 808.246 634.386 810.116C634.477 811.447 634.109 812.606 633.476 813.747C631.352 817.574 627.862 821.089 625.166 824.564C619.833 831.436 614.654 838.441 609.143 845.171C614.109 851.378 639.313 880.769 639.396 885.929C639.426 887.821 638.707 889.387 637.321 890.663C635.119 892.69 631.92 893.511 628.988 893.324C626.968 893.195 624.569 892.76 622.875 891.569C618.523 888.507 614.804 882.134 611.508 877.916C605.06 869.664 598.681 861.071 591.662 853.301C590.757 853.909 589.598 854.595 588.867 855.411C586.089 858.515 587.195 865.903 587.298 869.768C587.375 875.742 588.331 883.66 586.494 889.353C586.044 890.747 585.427 891.644 584.072 892.286C581.23 893.633 573.526 893.437 570.796 892.156C569.31 891.459 568.123 890.337 567.627 888.744C565.987 883.481 566.392 820.37 566.997 811.058C567.09 809.623 567.333 807.841 568.158 806.615C569.356 804.835 572.391 804.39 574.347 804.22C577.441 803.953 583.138 803.998 585.463 806.497C588.222 809.465 587.235 838.695 587.163 844.055C593.437 835.119 600.242 826.558 606.983 817.974C610.083 814.028 613.077 809.363 616.808 806.018C618.278 804.7 619.738 804.149 621.617 803.625Z" fill="#464675"/>
<path d="M246.193 803.205C256.096 802.524 266.525 804.375 274.748 810.185C280.378 814.164 287.748 822.142 288.794 829.166C289.072 831.03 288.703 832.911 287.467 834.374C284.837 837.49 280.82 837.52 277.086 837.731C270.861 835.007 268.402 829.811 263.652 825.383C259.283 821.309 253.582 819.505 247.654 819.826C242.595 820.1 238.106 822.138 234.804 826.016C228.711 833.172 227.307 844.547 228.173 853.588C228.883 861.004 231.637 869.061 237.708 873.766C242.311 877.333 248.533 878.434 254.22 877.561C261.942 876.375 266.26 870.69 270.579 864.825C272.354 862.261 274.51 860.454 277.666 859.879C280.498 859.364 283.472 859.879 285.793 861.639C287.675 863.066 288.731 865.169 288.984 867.499C289.467 871.956 285.169 877.314 282.447 880.563C275.723 888.587 265.971 893.079 255.63 893.977C244.187 894.969 230.61 892.95 221.599 885.292C212.614 877.657 207.987 865.585 207.074 854.067C206.028 840.872 208.123 827.171 216.962 816.85C224.794 807.705 234.442 804.15 246.193 803.205Z" fill="#464675"/>
<path d="M507.873 804.214C515.797 803.605 524.575 804.473 531.796 807.974C539.2 811.565 544.518 817.686 547.084 825.49C547.996 828.263 549.103 833.025 547.378 835.706C546.409 837.211 544.949 837.689 543.282 837.896C528.042 839.792 531.742 829.724 522.689 823.065C518.616 820.07 511.185 819.94 506.306 820.781C501.383 821.629 497.416 824.109 494.62 828.262C488.976 836.646 488.204 848.61 490.198 858.299C491.471 864.484 494.485 870.867 499.976 874.335C504.769 877.362 511.228 877.743 516.616 876.293C524.696 874.119 526.93 867.763 530.692 861.243C531.263 860.87 531.838 860.539 532.473 860.285C535.825 858.948 543.703 858.169 546.8 860.039C548.473 861.049 549.421 863.506 549.567 865.359C549.96 870.334 546.025 876.256 542.987 879.988C536.597 887.839 527.773 892.072 517.778 893.058C506.246 894.196 493.047 892.79 483.862 885.102C474.407 877.188 469.522 865.285 468.56 853.168C467.53 840.193 470.742 826.069 479.476 816.094C486.838 807.687 497.112 804.947 507.873 804.214Z" fill="#464675"/>
<path d="M405.689 804.628C414.427 804.506 423.166 804.826 431.905 804.781C438.658 804.747 445.953 804.051 452.621 804.893C453.845 805.048 454.983 805.421 455.977 806.17C457.796 807.541 458.791 809.742 458.994 811.975C459.185 814.09 458.643 816.802 456.995 818.293C453.225 821.702 425.126 820.263 418.959 820.273L418.928 839.316C425.385 839.36 442.506 837.94 447.262 841.661C448.841 842.896 449.653 844.636 449.788 846.618C449.936 848.787 449.476 851.127 447.958 852.764C444.021 857.011 425.277 855.1 419.014 855.239L419.027 869.125L419.024 877.496C425.79 877.52 450.191 876.146 454.849 877.747C456.438 878.293 457.726 879.272 458.427 880.828C459.476 883.153 459.37 886.605 458.494 888.965C457.903 890.558 457.021 891.671 455.381 892.284C449.951 894.314 407.729 893.631 402.177 891.175C400.823 890.576 400.227 889.77 399.78 888.36C398.587 884.597 398.295 819.046 398.991 811.07C399.109 809.72 399.365 808.388 400.17 807.254C401.459 805.438 403.657 805.058 405.689 804.628Z" fill="#464675"/>
<path d="M715.596 803.601C718.092 803.496 721.06 803.666 723.273 804.946C725.026 805.959 726.752 807.923 727.163 809.94C728.381 815.926 727.511 830.383 727.519 837.014C727.541 852.966 728.331 869.344 727.368 885.259C727.263 886.996 727.168 888.633 726.221 890.138C724.682 892.585 722.136 892.969 719.513 893.476C717.536 893.512 715.485 893.58 713.52 893.35C710.789 893.03 708.962 892.141 707.265 890.001C706.651 887.359 706.302 884.761 706.188 882.053C705.82 873.329 705.023 810.83 707.016 807.468C708.589 804.816 712.88 804.091 715.596 803.601Z" fill="#F9CA80"/>
<path d="M666.829 850.2C673.181 849.86 682.083 848.832 688.204 850.595C690.284 851.194 692.374 852.378 693.249 854.469C694.107 856.519 693.613 859.144 692.751 861.11C691.762 863.362 690.035 864.194 687.849 865.041C681.413 864.969 667.553 866.742 662.395 862.799C660.79 861.572 659.646 859.792 659.399 857.768C659.165 855.852 659.913 854.159 661.12 852.712C662.841 850.647 664.206 850.442 666.829 850.2Z" fill="#F9CA80"/>
</svg>