<?xml version="1.0" encoding="utf-8"?>
<svg xmlns="http://www.w3.org/2000/svg" fill="none" height="100" viewBox="0 0 100 100" width="100" style="background-color:transparent;">
  <g clip-path="url(#clip0_80_861)" fill="#333333">
    <path d="M0 0H100V100H0V0Z" fill="#FEFEFE"/>
    <path d="M48.6492 12.1528C48.7982 11.838 49.0115 11.5846 49.3481 11.4643C49.6706 11.349 50.0473 11.356 50.3576 11.5046C50.837 11.7341 51.1083 12.2527 51.2614 12.7387C51.4763 13.4206 51.57 14.208 51.5624 14.9206C52.9423 15.0166 54.3302 15.2406 55.689 15.4942C64.5917 17.156 72.1493 21.812 78.0641 28.6075C80.3195 31.199 82.2062 33.9952 83.9448 36.9519C84.4242 37.7672 84.9404 38.5762 85.3637 39.4225C85.1606 39.9048 84.8928 40.4681 84.4928 40.8171C84.2236 41.1298 83.9561 41.4621 83.6599 41.7491C83.6064 42.0172 83.3088 42.348 83.1551 42.5877C81.2123 45.6174 78.667 48.4117 76.0472 50.8635C75.6947 51.1934 75.1669 51.7913 74.7619 52.0263C74.7207 52.0502 74.7073 52.0504 74.6662 52.0589C74.2128 52.6499 72.7284 53.6533 72.0633 54.1334C66.8527 57.894 60.9032 60.4071 54.5129 61.2512C53.6672 61.3629 52.4473 61.6048 51.6086 61.5169L51.5302 61.5745C51.3695 62.5462 51.8298 63.9884 50.845 64.6651C50.4559 64.9324 49.9423 65.0704 49.4745 64.9796C49.053 64.8949 48.6842 64.6421 48.4529 64.2796C48.168 63.8394 48.1415 63.3943 48.1424 62.8885L48.1413 61.5793C47.8875 61.5368 47.6584 61.5097 47.3998 61.5183C47.2968 61.5396 47.3442 61.5375 47.2331 61.5265C45.6112 61.3651 44.061 61.1417 42.4788 60.7574C42.1012 60.6656 41.7096 60.6223 41.3342 60.5221C32.464 58.0704 24.6149 52.8365 18.942 45.5902C17.896 44.2711 16.8429 42.9184 16 41.4578L15.8197 41.1979C15.3688 40.6087 14.9578 39.9506 14.6289 39.2848C14.9789 38.524 15.4867 37.8056 15.9143 37.0842C17.6582 34.1425 19.5302 31.3729 21.7207 28.7412C28.3205 20.8253 37.8172 15.8842 48.0874 15.0227C48.1188 14.092 48.1506 12.9658 48.6492 12.1528Z" fill="#F6F0E4"/>
    <path d="M48.0874 15.0226C48.1188 14.092 48.1506 12.9658 48.6492 12.1527C48.6561 12.4891 48.5569 12.8418 48.5041 13.1748C48.4033 13.8095 48.3103 14.4399 48.2795 15.0827C48.1528 17.7296 48.2693 20.4028 48.0507 23.0435C48.0566 23.1669 48.0742 23.2971 48.0544 23.419C47.4717 23.6093 46.8557 23.7163 46.2846 23.9363C44.7927 24.2801 43.2786 24.8103 41.8494 25.3583C41.114 25.6403 40.348 26.0081 39.5921 26.215C39.1081 26.4474 38.6988 26.9469 38.3371 27.3344C36.6578 29.1332 35.4178 31.1028 34.6003 33.4283C34.193 34.5868 33.9532 35.7633 33.7798 36.9759C34.7276 36.9515 36.1092 36.7101 36.9684 37.082C37.3737 37.2922 37.6165 37.5439 37.7633 37.9842C37.9083 38.4192 37.9216 38.93 37.7065 39.3447C37.5229 39.699 37.227 39.8895 36.8521 40.0009C36.2393 40.183 35.3676 40.2534 34.7248 40.2324C34.4573 40.2705 34.1953 40.2953 33.9255 40.3079C34.1956 44.3925 36.4293 48.0409 39.4513 50.6885C41.771 52.7207 44.8918 54.1179 47.9607 54.4643C47.9998 54.4815 48.0548 54.4739 48.0975 54.4743C48.3103 54.0043 48.1003 53.1362 48.3102 52.5494C48.5228 52.9901 48.179 56.0134 48.3393 56.8671C48.3319 57.1103 48.3021 57.3739 48.3326 57.6146C48.3048 58.3135 48.2907 59.0129 48.2904 59.7123C48.2956 60.7482 48.396 61.8782 48.1424 62.8885L48.1413 61.5793C47.8875 61.5368 47.6584 61.5096 47.3998 61.5182C47.2968 61.5395 47.3442 61.5375 47.2331 61.5264C45.6112 61.365 44.061 61.1417 42.4788 60.7573C42.1012 60.6655 41.7096 60.6222 41.3342 60.522C32.464 58.0704 24.6149 52.8364 18.942 45.5901C17.896 44.2711 16.8429 42.9183 16 41.4578L15.8197 41.1978C15.3688 40.6087 14.9578 39.9506 14.6289 39.2847C14.9789 38.5239 15.4867 37.8055 15.9143 37.0842C17.6582 34.1425 19.5302 31.3728 21.7207 28.7412C28.3205 20.8253 37.8172 15.8842 48.0874 15.0226Z" fill="#F6F0E4"/>
    <path d="M14.6289 39.2848C14.9789 38.5239 15.4867 37.8056 15.9143 37.0842C17.6582 34.1425 19.5302 31.3728 21.7207 28.7412C28.3205 20.8253 37.8172 15.8842 48.0874 15.0226C48.0066 16.1696 47.9587 17.3186 47.9435 18.4683C42.6269 19.0006 37.7443 21.6381 34.3846 25.7927C33.4567 26.9356 32.6782 28.5681 31.5864 29.5018C30.9894 30.0126 30.2875 30.38 29.6115 30.773C28.8478 31.2173 28.0888 31.6641 27.3454 32.1416C24.9179 33.7109 22.5741 35.4064 20.3239 37.221C19.163 38.1437 17.9997 39.0693 16.91 40.0764C16.5619 40.398 16.0553 40.7861 15.8197 41.1978C15.3688 40.6087 14.9578 39.9506 14.6289 39.2848Z" fill="#A696AB"/>
    <path d="M48.0874 15.0226C48.1188 14.092 48.1506 12.9658 48.6492 12.1527C48.656 12.4891 48.5569 12.8418 48.5041 13.1748C48.4033 13.8095 48.3102 14.4399 48.2795 15.0827C48.1528 17.7296 48.2693 20.4028 48.0507 23.0435C48.0566 23.1669 48.0742 23.2971 48.0544 23.419C47.4717 23.6093 46.8556 23.7163 46.2845 23.9363C44.7927 24.2801 43.2786 24.8103 41.8494 25.3583C41.1139 25.6403 40.3479 26.0081 39.5921 26.215C39.1081 26.4474 38.6988 26.9469 38.3371 27.3344C36.6578 29.1332 35.4177 31.1028 34.6003 33.4283C34.1929 34.5868 33.9532 35.7633 33.7798 36.9759C34.7276 36.9515 36.1092 36.7101 36.9683 37.082C37.3737 37.2922 37.6165 37.5439 37.7633 37.9842C37.9083 38.4192 37.9216 38.93 37.7065 39.3447C37.5229 39.699 37.2269 39.8895 36.8521 40.0009C36.2392 40.183 35.3676 40.2534 34.7248 40.2324L34.6367 40.1325C34.0963 40.17 33.3157 40.1066 32.8195 40.2935L32.7685 40.3964C32.3999 40.4666 31.7385 40.5746 31.3727 40.5176C31.3227 40.4857 31.2783 40.4426 31.2226 40.4221C31.0504 40.359 30.1231 40.5355 29.8998 40.5714L29.8417 40.6358L29.8854 40.6865C29.1531 40.8253 26.3699 41.0748 25.7378 41.0082C25.505 40.9524 25.2958 40.8864 25.1047 40.7367C24.7007 40.4202 24.4541 39.9056 24.4024 39.4007C24.3569 38.9557 24.4359 38.465 24.735 38.1169C24.8977 37.9276 25.1029 37.8046 25.3396 37.73C25.9341 37.5426 26.6235 37.5475 27.2422 37.4912L29.9951 37.2424C30.0968 35.3531 30.4695 33.4884 31.1015 31.7051C31.336 31.0499 31.7637 30.2924 31.9203 29.6479C28.6791 31.2788 25.6097 33.3837 22.708 35.551C20.8769 36.9187 19.0798 38.3257 17.3892 39.8657C17.1452 40.088 16.1157 40.9621 16.0111 41.2206C15.9825 41.2912 15.9957 41.3839 16 41.4578L15.8197 41.1978C16.0552 40.7861 16.5619 40.398 16.9099 40.0763C17.9997 39.0693 19.163 38.1437 20.3239 37.221C22.5741 35.4064 24.9178 33.7109 27.3454 32.1416C28.0887 31.664 28.8478 31.2173 29.6115 30.773C30.2875 30.38 30.9893 30.0126 31.5864 29.5018C32.6782 28.568 33.4567 26.9356 34.3845 25.7927C37.7443 21.6381 42.6268 19.0006 47.9434 18.4683C47.9587 17.3186 48.0066 16.1696 48.0874 15.0226Z" fill="#A44C05"/>
    <path d="M24.9172 38.1765C25.0049 38.119 25.0939 38.0622 25.1884 38.0163C25.9508 37.6454 34.9961 37.013 36.3954 37.0632C36.5418 37.0685 36.6713 37.1008 36.8088 37.149L36.9683 37.082C37.3737 37.2922 37.6165 37.5439 37.7633 37.9842C37.9083 38.4192 37.9216 38.93 37.7065 39.3447C37.5229 39.699 37.2269 39.8895 36.8521 40.0009C36.2392 40.183 35.3676 40.2534 34.7248 40.2324L34.6367 40.1325C34.0963 40.17 33.3157 40.1066 32.8195 40.2935L32.7685 40.3964C32.3999 40.4666 31.7386 40.5746 31.3727 40.5176C31.3227 40.4857 31.2783 40.4426 31.2226 40.4222C31.0504 40.359 30.1231 40.5355 29.8998 40.5714L29.8417 40.6358L29.8854 40.6865C29.1531 40.8253 26.3699 41.0748 25.7378 41.0082C25.7898 40.9889 25.8341 40.9597 25.8816 40.9314C25.7667 40.8978 25.6453 40.8759 25.5331 40.8346C25.1765 40.7036 24.8544 40.409 24.7 40.0615C24.5044 39.6211 24.532 39.0936 24.7114 38.6543C24.7643 38.4879 24.8423 38.3339 24.9172 38.1765Z" fill="#F7BD80"/>
    <path d="M36.9683 37.082C37.3737 37.2922 37.6165 37.5439 37.7633 37.9842C37.9083 38.4192 37.9216 38.93 37.7065 39.3447C37.5229 39.699 37.2269 39.8896 36.8521 40.0009C36.2392 40.183 35.3676 40.2534 34.7248 40.2324L34.6367 40.1325C34.0963 40.17 33.3157 40.1066 32.8195 40.2936L32.7685 40.3964C32.3999 40.4666 31.7386 40.5746 31.3727 40.5176C31.3227 40.4857 31.2783 40.4426 31.2226 40.4222C31.0504 40.359 30.1231 40.5355 29.8998 40.5714L29.8417 40.6358L29.8854 40.6865C29.1531 40.8253 26.3699 41.0748 25.7378 41.0082C25.7898 40.9889 25.8341 40.9597 25.8816 40.9314C25.7667 40.8978 25.6453 40.8759 25.5331 40.8346C25.1765 40.7036 24.8544 40.409 24.7 40.0615C24.5044 39.6211 24.532 39.0937 24.7114 38.6543C24.7042 38.8083 24.6964 38.9638 24.7041 39.1179C24.7239 39.5094 24.7946 39.9518 25.1121 40.2179C25.3816 40.4437 25.7361 40.4835 26.0754 40.4933C27.1156 40.5233 28.2057 40.3066 29.2472 40.2258L36.6434 39.6801C36.964 39.6577 37.1171 39.5876 37.3234 39.3298C37.5602 39.0339 37.6164 38.6203 37.5564 38.255C37.4743 37.7546 37.2113 37.4328 36.8088 37.149L36.9683 37.082Z" fill="#C4701F"/>
    <path d="M40.1499 25.6306C40.775 25.3082 41.3602 24.8416 41.9709 24.4823C42.4931 24.1757 43.0338 23.9016 43.5898 23.6617C44.3769 23.3261 47.1235 22.3206 47.8432 22.5064C47.9779 22.649 47.9103 22.8333 48.0124 22.9891C48.0245 23.0077 48.0378 23.0255 48.0506 23.0435C48.0566 23.1669 48.0742 23.2971 48.0543 23.419C47.4716 23.6093 46.8556 23.7163 46.2845 23.9363C44.7926 24.2801 43.2786 24.8103 41.8494 25.3583C41.1139 25.6403 40.3479 26.0081 39.592 26.215C39.6948 25.9506 39.9348 25.7988 40.1499 25.6306Z" fill="url(#paint0_linear_80_861)"/>
    <path d="M32.9455 28.36C33.6249 27.3735 34.2563 26.3688 35.0272 25.4461C35.7921 24.5304 36.7138 23.6987 37.6264 22.9341C39.9049 21.0253 42.862 19.6661 45.7469 19.012C46.4533 18.8518 47.1991 18.6821 47.9257 18.747C48.0014 19.5506 47.9769 20.3369 47.9481 21.1418C47.9389 21.3723 47.9728 21.8009 47.8037 21.9746C47.7652 22.014 45.4052 22.6234 45.1237 22.7249C43.3297 23.3722 41.7257 24.1832 40.1772 25.2992C37.6105 27.4645 35.814 29.4812 34.6454 32.6881C34.2787 33.6747 33.9913 34.689 33.7858 35.7213C33.7449 35.9302 33.6402 36.8001 33.5398 36.9283C33.4573 37.0339 33.0465 37.013 32.9149 37.0147L30.3083 37.19C30.2917 36.5653 30.3806 35.9067 30.478 35.2913C30.8783 32.7603 31.8036 30.6358 32.9455 28.36Z" fill="#F9C288"/>
    <path d="M32.9149 37.0147C33.0155 36.9175 33.1278 36.8161 33.1852 36.6861C33.3845 36.2345 33.4464 35.6801 33.5529 35.1973C33.7285 34.4023 33.9537 33.6262 34.147 32.8368C34.2657 32.3523 34.3393 31.8323 34.5214 31.3678C34.7192 30.8629 35.0994 30.6458 35.3576 30.2106C35.6528 29.7131 35.8448 29.1463 36.1755 28.6699C38.4071 25.4851 41.6326 23.1309 45.3461 21.9765C46.095 21.7436 46.8679 21.6734 47.6233 21.4916C47.8257 21.4429 47.8473 21.3125 47.9481 21.1418C47.9388 21.3724 47.9728 21.8009 47.8037 21.9746C47.7652 22.0141 45.4051 22.6234 45.1237 22.7249C43.3297 23.3722 41.7257 24.1832 40.1772 25.2992C37.6105 27.4645 35.814 29.4812 34.6454 32.6881C34.2787 33.6747 33.9913 34.689 33.7858 35.7213C33.7449 35.9302 33.6402 36.8001 33.5398 36.9283C33.4573 37.0339 33.0465 37.013 32.9149 37.0147Z" fill="#F7BD80"/>
    <path d="M32.7685 40.3964L32.8195 40.2935C33.3157 40.1066 34.0963 40.17 34.6367 40.1325L34.7248 40.2324C34.4573 40.2705 34.1953 40.2953 33.9255 40.3079C34.1956 44.3925 36.4293 48.0409 39.4512 50.6885C41.771 52.7207 44.8918 54.118 47.9607 54.4643C47.9998 54.4815 48.0548 54.4739 48.0974 54.4743C48.3102 54.0043 48.1003 53.1362 48.3101 52.5494C48.5227 52.9901 48.179 56.0134 48.3392 56.8671C48.3319 57.1103 48.302 57.3739 48.3326 57.6146C48.3048 58.3135 48.2907 59.0129 48.2904 59.7123C48.2956 60.7482 48.396 61.8782 48.1424 62.8885L48.1413 61.5793C47.8875 61.5368 47.6584 61.5097 47.3998 61.5183C47.6208 61.4269 47.8441 61.4302 48.0796 61.4189C48.0896 60.372 48.0916 59.325 48.0854 58.278C41.942 57.707 36.4001 54.3489 33.0502 49.1675C32.3235 48.0398 31.6872 46.8671 31.2399 45.5992C30.9008 44.6388 30.6094 43.6622 30.367 42.6728C30.2779 42.3089 30.0582 40.8911 29.8854 40.6865L29.8417 40.6358L29.8998 40.5714C30.1231 40.5355 31.0504 40.359 31.2226 40.4222C31.2783 40.4426 31.3227 40.4857 31.3727 40.5176C31.7385 40.5746 32.3999 40.4666 32.7685 40.3964Z" fill="#F9C288"/>
    <path d="M32.7685 40.3964L32.8195 40.2935C33.3157 40.1066 34.0963 40.17 34.6367 40.1325L34.7248 40.2324C34.4573 40.2705 34.1953 40.2953 33.9255 40.3079C34.1956 44.3925 36.4293 48.0409 39.4512 50.6885C41.771 52.7207 44.8918 54.118 47.9607 54.4643C47.9998 54.4815 48.0548 54.4739 48.0974 54.4743C48.3102 54.0043 48.1003 53.1362 48.3101 52.5494C48.5227 52.9901 48.179 56.0134 48.3392 56.8671C48.3319 57.1103 48.302 57.3739 48.3326 57.6146C48.3048 58.3135 48.2907 59.0129 48.2904 59.7123C48.2956 60.7482 48.396 61.8782 48.1424 62.8885L48.1413 61.5793C47.8875 61.5368 47.6584 61.5097 47.3998 61.5183C47.6208 61.4269 47.8441 61.4302 48.0796 61.4189C48.0896 60.372 48.0916 59.325 48.0854 58.278C41.942 57.707 36.4001 54.3489 33.0502 49.1675C32.3235 48.0398 31.6872 46.8671 31.2399 45.5992C30.9008 44.6388 30.6094 43.6622 30.367 42.6728C30.2779 42.3089 30.0582 40.8911 29.8854 40.6865L29.8417 40.6358L29.8998 40.5714C30.1231 40.5355 31.0504 40.359 31.2226 40.4222C31.2783 40.4426 31.3227 40.4857 31.3727 40.5176C31.1534 40.5677 30.9266 40.5754 30.7066 40.6235C30.569 40.6537 30.5249 40.6563 30.4586 40.788C30.1946 41.3122 31.0721 43.8957 31.2912 44.5788C32.8768 49.5229 36.4704 53.5265 41.0715 55.8766C41.671 56.1828 42.2973 56.4758 42.9286 56.7092C43.8446 57.0477 47.1761 58.0419 47.9964 57.7768C48.2582 57.4583 48.1218 55.3061 48.094 54.7946C48.0846 54.7914 48.0753 54.7883 48.066 54.7849C47.5747 54.6048 47.0304 54.5783 46.5207 54.4621C45.9212 54.3254 45.3235 54.1083 44.7406 53.9131C39.9777 52.3678 36.1999 48.7025 34.5113 43.9886C34.2928 43.3658 34.1152 42.7295 33.9794 42.0836C33.8637 41.5381 33.8763 40.8798 33.6293 40.3836C33.3449 40.361 33.0535 40.3859 32.7685 40.3964Z" fill="#B65F14"/>
    <path d="M67.5635 29.345C67.7639 29.4468 67.9646 29.5402 68.172 29.6267C68.7185 29.9583 69.3007 30.2316 69.855 30.5512C70.9851 31.2031 72.1015 31.9015 73.1981 32.6093C74.5584 33.4872 75.87 34.4897 77.1509 35.4783C78.9519 36.8682 80.6992 38.2776 82.3702 39.8241C82.6613 40.0936 83.7531 40.9892 83.8484 41.2968C83.8745 41.3809 83.7025 41.6665 83.6598 41.7491C83.6064 42.0172 83.3088 42.348 83.155 42.5877C81.2123 45.6174 78.667 48.4117 76.0471 50.8635C75.6947 51.1934 75.1669 51.7913 74.7619 52.0263C74.7207 52.0502 74.7073 52.0504 74.6662 52.0589C74.2128 52.6499 72.7284 53.6533 72.0632 54.1334C66.8527 57.894 60.9032 60.407 54.5129 61.2512C53.6672 61.3629 52.4472 61.6048 51.6086 61.5169L51.5301 61.5745C51.3695 62.5462 51.8298 63.9884 50.845 64.665C50.4558 64.9324 49.9423 65.0704 49.4745 64.9796C49.053 64.8948 48.6842 64.6421 48.4529 64.2796C48.1679 63.8394 48.1415 63.3943 48.1424 62.8885C48.396 61.8782 48.2956 60.7483 48.2904 59.7123C48.2907 59.0129 48.3048 58.3135 48.3326 57.6147C48.302 57.3739 48.3319 57.1104 48.3392 56.8671C48.179 56.0134 48.5227 52.9901 48.3101 52.5494C48.3667 52.2831 48.5175 52.0776 48.6718 51.8606C48.6994 51.8415 48.7273 51.823 48.7546 51.8035C48.9165 51.6881 49.0634 51.5956 49.2509 51.5236C49.7313 51.3395 50.1045 51.416 50.5571 51.6283C50.9353 51.8034 51.1731 52.1006 51.3093 52.4921C51.4911 53.0147 51.4986 53.6668 51.4512 54.2124C51.4638 54.3269 51.4651 54.4154 51.5212 54.5184L51.4511 54.5609C51.5149 54.6872 51.5425 54.6717 51.6788 54.7172C56.1689 53.8571 58.5868 52.8874 61.8809 49.6405C63.2715 48.396 64.5552 46.0894 65.2225 44.3561C65.4655 43.7251 65.6743 43.0495 65.8259 42.3901C65.9331 41.9243 66.002 41.4261 66.1678 40.9772C66.2309 40.8065 66.3232 40.6181 66.4595 40.4933C66.5326 40.4265 66.6148 40.3812 66.7131 40.3657C67.3398 40.2677 68.7496 40.5109 69.4883 40.5227L69.6032 40.5634C69.6353 40.6368 69.656 40.697 69.6734 40.7756C69.6958 40.8772 69.6775 40.8319 69.7429 40.9232L69.7941 40.6284C70.0874 40.4239 73.4077 40.9792 74.2621 40.7482C74.7604 40.6134 75.0553 40.3519 75.3128 39.916C75.3788 39.7514 75.4443 39.5883 75.4732 39.4123C75.5661 38.8462 75.3629 38.389 75.0502 37.9343C74.8086 37.7683 74.5819 37.647 74.2967 37.5701C73.7052 37.4108 73.0628 37.4066 72.4539 37.3582L69.8354 37.1512C69.8072 36.6648 69.7338 36.1864 69.6578 35.7059C69.3768 33.646 68.5399 31.1662 67.5635 29.345Z" fill="#F6F0E4"/>
    <path d="M61.8809 49.6405C63.2714 48.396 64.5552 46.0893 65.2225 44.356C65.4655 43.7251 65.6743 43.0495 65.8259 42.3901C65.933 41.9243 66.002 41.4261 66.1678 40.9771C66.2309 40.8064 66.3232 40.618 66.4595 40.4932C66.5326 40.4264 66.6148 40.3811 66.713 40.3657C67.3398 40.2677 68.7495 40.5109 69.4883 40.5226C69.2874 43.9693 67.6246 47.8726 65.4464 50.5399C64.7516 51.3906 63.9369 52.1343 63.1183 52.8628C59.9772 55.6582 55.7601 57.575 51.5359 57.82C51.4757 57.3349 51.3462 55.0871 51.5378 54.7619L51.6787 54.7172C56.1689 53.8571 58.5868 52.8874 61.8809 49.6405Z" fill="#F9C288"/>
    <path d="M48.6718 51.8605C48.6994 51.8415 48.7273 51.8229 48.7545 51.8035C48.9164 51.6881 49.0634 51.5956 49.2509 51.5236C49.7313 51.3394 50.1044 51.416 50.5571 51.6283C50.9353 51.8034 51.1731 52.1006 51.3093 52.4921C51.4911 53.0146 51.4986 53.6668 51.4512 54.2124C51.4638 54.3268 51.4651 54.4154 51.5211 54.5183L51.4511 54.5609C51.2824 54.7113 51.2864 54.9143 51.2739 55.1252C51.1942 56.4755 51.2921 57.8655 51.3477 59.2169C51.3871 60.1725 51.391 61.123 51.3954 62.0789C51.3974 62.5149 51.5001 63.1067 51.4086 63.5256C51.339 63.8441 51.114 64.1529 50.8701 64.3622C50.5809 64.6103 50.0813 64.7281 49.7077 64.6851C49.5814 64.6707 49.4622 64.6251 49.343 64.5836C48.9421 64.4436 48.7629 64.4026 48.5549 63.9909C48.4281 63.7398 48.372 63.4634 48.3461 63.1852C48.2894 62.5757 48.3642 61.9525 48.3685 61.341C48.3738 60.5704 48.3272 59.7988 48.3415 59.0288C48.3497 58.591 48.433 58.0399 48.3326 57.6146C48.302 57.3739 48.3319 57.1103 48.3392 56.8671C48.1789 56.0133 48.5227 52.9901 48.3101 52.5494C48.3666 52.2831 48.5174 52.0776 48.6718 51.8605Z" fill="#D1853C"/>
    <path d="M48.9866 51.9758C49.2778 51.7928 49.4815 51.7181 49.8278 51.7089C50.2925 51.8041 50.7102 51.985 50.9745 52.4028C51.1172 52.6284 51.152 52.8808 51.17 53.1422C51.2197 53.8608 51.1983 54.5998 51.2016 55.3205L51.1918 59.8514C51.1912 60.8231 51.3885 62.8194 51.1529 63.643C51.0831 63.8872 50.9168 64.0924 50.6923 64.2109C50.3157 64.4052 49.702 64.3697 49.3129 64.2291C49.1136 64.157 48.8875 64.0206 48.8069 63.8141C48.7154 63.5799 48.6939 63.2695 48.6787 63.0195C48.6396 62.3717 48.6771 61.7178 48.6621 61.0686C48.6238 59.404 48.5866 57.7494 48.5965 56.0838C48.6017 55.2277 48.5053 54.3463 48.5824 53.4939C48.632 52.9465 48.7702 52.4789 48.9866 51.9758Z" fill="#F9C288"/>
    <path d="M48.6718 51.8605C48.6994 51.8415 48.7273 51.8229 48.7545 51.8035C48.9164 51.6881 49.0634 51.5956 49.2509 51.5236C49.7313 51.3394 50.1044 51.416 50.5571 51.6283C50.3146 51.7016 50.0786 51.7011 49.8277 51.7089C49.4814 51.7181 49.2777 51.7928 48.9865 51.9758C48.6543 52.2112 48.5111 52.5867 48.4385 52.9759C48.2732 53.8624 48.5147 56.42 48.3392 56.8671C48.1789 56.0133 48.5227 52.9901 48.3101 52.5494C48.3666 52.2831 48.5174 52.0776 48.6718 51.8605Z" fill="#C4701F"/>
    <path d="M69.4883 40.5226L69.6032 40.5634C69.6353 40.6368 69.656 40.697 69.6734 40.7756C69.6958 40.8771 69.6775 40.8319 69.7429 40.9231C69.7262 41.1913 69.6813 41.4492 69.634 41.7132C68.4647 47.3613 65.8781 51.7575 60.9923 54.9602C60.6579 55.1794 60.3126 55.3817 59.9744 55.5951C57.3312 56.9684 54.5039 58.0174 51.51 58.2681C51.5093 58.8163 51.4194 61.2243 51.6086 61.5169L51.5301 61.5745C51.3695 62.5462 51.8298 63.9884 50.845 64.665C50.4558 64.9324 49.9423 65.0704 49.4745 64.9796C49.053 64.8948 48.6842 64.6421 48.4529 64.2796C48.1679 63.8393 48.1415 63.3942 48.1424 62.8885C48.396 61.8782 48.2956 60.7482 48.2904 59.7123C48.2907 59.0129 48.3048 58.3135 48.3326 57.6146C48.433 58.0399 48.3498 58.591 48.3416 59.0288C48.3272 59.7988 48.3738 60.5704 48.3685 61.341C48.3642 61.9525 48.2894 62.5757 48.3462 63.1852C48.372 63.4634 48.4281 63.7398 48.555 63.9909C48.763 64.4026 48.9422 64.4436 49.343 64.5836C49.4622 64.6251 49.5814 64.6707 49.7077 64.6851C50.0813 64.7281 50.5809 64.6103 50.8701 64.3622C51.114 64.1529 51.339 63.8441 51.4087 63.5256C51.5002 63.1067 51.3974 62.5149 51.3954 62.0789C51.391 61.123 51.3871 60.1725 51.3477 59.2169C51.2922 57.8655 51.1942 56.4755 51.2739 55.1252C51.2864 54.9143 51.2824 54.7113 51.4511 54.5609C51.5149 54.6872 51.5425 54.6717 51.6788 54.7172L51.5379 54.7619C51.3463 55.0871 51.4758 57.335 51.5359 57.82C55.7601 57.575 59.9772 55.6582 63.1183 52.8628C63.937 52.1343 64.7516 51.3906 65.4465 50.5399C67.6247 47.8726 69.2875 43.9693 69.4883 40.5226Z" fill="#C4701F"/>
    <path d="M59.9744 55.5951C59.6376 55.9936 59.077 56.0061 58.7661 56.3694C58.8923 56.4223 58.9935 56.2839 59.1111 56.3263C58.6231 56.6513 56.3882 57.5514 55.8638 57.4821C55.8546 57.481 55.7604 57.4644 55.7462 57.4664C55.5919 57.4881 55.533 57.6104 55.4441 57.7216L55.157 57.7248L55.138 57.7888C54.9857 57.7663 54.8463 57.7449 54.6916 57.7587L54.7039 57.8343L54.8061 57.8092L54.853 57.8413L54.7782 57.8768L54.817 57.8118L54.8419 57.8245L54.7791 57.9009L54.7527 57.8798C53.957 57.9342 53.2327 58.1055 52.4516 58.2494C52.1727 58.3009 51.8877 58.2958 51.6161 58.38C51.5037 58.7927 51.5794 60.5659 51.5764 61.1223L51.6079 61.1529C52.7507 61.0696 53.8943 60.9884 55.0287 60.8229C59.1524 60.1864 63.1498 58.904 66.8741 57.0227C68.622 56.1405 70.2722 55.067 71.9091 53.9977C72.2043 53.8048 72.5176 53.6398 72.8107 53.4451C73.1957 53.1892 74.3292 52.0996 74.6661 52.0589C74.2127 52.6499 72.7284 53.6533 72.0632 54.1334C66.8527 57.894 60.9032 60.407 54.5128 61.2512C53.6671 61.3629 52.4472 61.6048 51.6085 61.5169C51.4194 61.2243 51.5093 58.8163 51.51 58.2681C54.5038 58.0174 57.3312 56.9685 59.9744 55.5951Z" fill="#DCCDC0"/>
    <path d="M75.0502 37.9343C75.4136 38.2016 75.6564 38.41 75.7363 38.8796C75.825 39.4014 75.6293 40.0251 75.3084 40.4376C74.9834 40.8557 74.2241 41.2398 73.6937 41.2755C73.6323 41.2796 73.5837 41.276 73.5212 41.2747C72.2837 41.2498 71.0463 41.1161 69.8097 41.1372C69.773 41.3408 69.7563 41.5409 69.634 41.7132C69.6814 41.4492 69.7263 41.1913 69.743 40.9231L69.7942 40.6284C70.0875 40.4239 73.4078 40.9792 74.2622 40.7481C74.7605 40.6134 75.0554 40.3518 75.3128 39.916C75.3789 39.7514 75.4444 39.5883 75.4733 39.4123C75.5662 38.8462 75.3629 38.389 75.0502 37.9343Z" fill="#DCCDC0"/>
    <path d="M51.5624 14.9206C52.9423 15.0166 54.3301 15.2405 55.6889 15.4941C64.5917 17.1559 72.1493 21.812 78.064 28.6075C80.3195 31.1989 82.2061 33.9952 83.9448 36.9518C84.4242 37.7672 84.9404 38.5762 85.3636 39.4224C85.1606 39.9048 84.8927 40.4681 84.4927 40.8171C84.2236 41.1298 83.956 41.4621 83.6598 41.7491C83.7025 41.6665 83.8745 41.3808 83.8484 41.2968C83.7531 40.9891 82.6613 40.0935 82.3702 39.8241C80.6992 38.2776 78.9519 36.8682 77.1509 35.4783C75.87 34.4896 74.5584 33.4872 73.1981 32.6093C72.1015 31.9015 70.9851 31.2031 69.855 30.5512C69.3007 30.2315 68.7185 29.9583 68.172 29.6266L68.2113 29.59C68.1186 29.4451 67.7589 29.3795 67.6016 29.261C67.185 28.9474 66.9458 28.2154 66.6695 27.7707C65.8704 26.5756 65.0371 25.4891 64.0785 24.4179C61.6068 21.9554 58.5543 20.1557 55.2031 19.185C54.0284 18.8526 52.8332 18.6441 51.6316 18.4382C51.6501 17.2689 51.5993 16.0893 51.5624 14.9206Z" fill="#A696AB"/>
    <path d="M64.0785 24.4178C64.2456 24.4676 64.3057 24.5242 64.4247 24.6484C64.6846 24.9201 64.9908 25.1516 65.2589 25.4167C65.6417 25.7952 65.9879 26.2365 66.3257 26.6556C66.6581 27.068 66.9012 27.564 67.2441 27.9611C67.6301 28.4081 68.1411 28.7553 68.5387 29.1846C68.552 29.199 68.5595 29.2178 68.5698 29.2344C69.1493 29.4015 72.7332 31.7618 73.2497 32.2741C73.1459 32.2913 72.9579 32.1502 72.8553 32.0996L72.8213 32.1579C73.0159 32.2984 73.2289 32.3996 73.426 32.5347C73.8363 32.816 74.2327 33.1404 74.6761 33.3673C74.5887 33.2854 74.2968 33.0598 74.285 32.9552C74.6685 33.0795 75.1185 33.4812 75.4546 33.72C77.2054 34.9643 78.8755 36.2924 80.5473 37.6366C80.9219 37.9379 81.3256 38.2104 81.6876 38.5262C82.0117 38.8091 82.3052 39.1326 82.6148 39.4315C83.1484 39.9469 83.7034 40.4436 84.2154 40.9805L84.2622 40.9545L84.1974 40.9715C84.2106 40.9649 84.2243 40.9594 84.2369 40.9519C84.3161 40.9052 84.372 40.838 84.4346 40.7719L84.4927 40.8171C84.2236 41.1298 83.956 41.4621 83.6598 41.7491C83.7025 41.6665 83.8745 41.3808 83.8484 41.2968C83.7531 40.9891 82.6613 40.0935 82.3702 39.8241C80.6992 38.2776 78.9519 36.8681 77.151 35.4783C75.87 34.4896 74.5584 33.4872 73.1981 32.6093C72.1015 31.9014 70.9851 31.2031 69.855 30.5511C69.3007 30.2315 68.7185 29.9583 68.172 29.6266L68.2113 29.59C68.1186 29.4451 67.7589 29.3795 67.6016 29.261C67.185 28.9473 66.9458 28.2154 66.6695 27.7707C65.8704 26.5756 65.0371 25.489 64.0785 24.4178Z" fill="#8A788E"/>
    <path d="M48.6492 12.1528C48.7982 11.838 49.0115 11.5846 49.3481 11.4643C49.6706 11.349 50.0472 11.356 50.3576 11.5046C50.837 11.7341 51.1083 12.2527 51.2614 12.7387C51.4762 13.4206 51.57 14.208 51.5624 14.9206C51.5993 16.0894 51.6501 17.269 51.6316 18.4382C52.8332 18.6442 54.0284 18.8527 55.2031 19.1851C58.5543 20.1557 61.6068 21.9554 64.0785 24.4179C65.0371 25.4891 65.8704 26.5756 66.6695 27.7707C66.9458 28.2155 67.185 28.9474 67.6016 29.2611C67.7589 29.3795 68.1186 29.4451 68.2113 29.5901L68.172 29.6267C67.9646 29.5403 67.7639 29.4468 67.5636 29.345C68.5399 31.1662 69.3768 33.646 69.6578 35.7059C69.4467 36.1359 69.9342 36.7744 69.4876 37.1213L69.3811 37.1202C68.8055 37.0631 68.2194 37.0278 67.6411 37.0133C67.3231 37.0222 67.0061 37.0031 66.6885 36.9922C65.8916 36.9649 66.2537 36.4518 65.8964 36.1129C65.8806 36.098 65.8636 36.0844 65.8473 36.07C65.8894 36.3073 65.9306 36.5439 65.9629 36.7827C65.8621 36.7144 65.7913 36.6592 65.7404 36.5448C65.6458 36.3317 65.6044 36.04 65.5426 35.8101C65.4158 35.3377 65.2784 34.8751 65.118 34.413C65.0595 33.1347 63.9011 31.1767 63.261 30.0164C63.0049 29.552 62.7788 29.0511 62.4447 28.6367C62.0295 28.1216 61.0211 27.3139 60.7915 26.7763C60.5407 26.5462 60.284 26.3263 60.0219 26.1093C59.2354 25.6029 58.305 25.3159 57.4268 25.008C55.3646 24.2851 53.6727 23.7979 51.531 23.3374C51.38 24.085 51.1911 24.9246 50.5094 25.3756C50.2342 25.5577 49.8635 25.658 49.5337 25.624C48.336 25.6023 48.4182 25.0601 47.8166 24.3014C47.7278 24.1896 47.5927 24.0902 47.4908 23.9869L47.5222 23.9427C47.4839 23.9048 47.3925 23.7896 47.3492 23.7718C47.1171 23.6764 46.5936 23.9718 46.2845 23.9364C46.8556 23.7163 47.4717 23.6093 48.0544 23.4191C48.0742 23.2972 48.0566 23.1669 48.0507 23.0436C48.2693 20.4029 48.1528 17.7296 48.2795 15.0827C48.3102 14.44 48.4033 13.8096 48.5041 13.1748C48.5569 12.8418 48.656 12.4892 48.6492 12.1528Z" fill="#F9C288"/>
    <path d="M48.6492 12.1528C48.7982 11.838 49.0115 11.5846 49.3481 11.4643C49.6706 11.349 50.0472 11.356 50.3576 11.5046C50.837 11.7341 51.1083 12.2527 51.2614 12.7387C51.4762 13.4206 51.57 14.208 51.5624 14.9206C51.5993 16.0894 51.6501 17.269 51.6316 18.4382C52.8332 18.6442 54.0284 18.8527 55.2031 19.1851C58.5543 20.1557 61.6068 21.9554 64.0785 24.4179C65.0371 25.4891 65.8704 26.5756 66.6695 27.7707C66.9458 28.2155 67.185 28.9474 67.6016 29.2611C67.7589 29.3795 68.1186 29.4451 68.2113 29.5901L68.172 29.6267C67.9646 29.5403 67.7639 29.4468 67.5636 29.345C68.5399 31.1662 69.3768 33.646 69.6578 35.7059C69.4467 36.1359 69.9342 36.7744 69.4876 37.1213L69.3811 37.1202C69.4669 36.9208 69.5201 36.7435 69.5294 36.5251C69.5559 35.8998 69.3716 35.2405 69.2388 34.6335C68.4582 31.0643 66.6227 27.4748 64.1015 24.8206C61.4551 22.0347 58.0987 20.1867 54.3869 19.2503C53.4913 19.0243 52.6088 18.8097 51.6808 18.785C51.6355 19.7886 51.6351 20.7937 51.6795 21.7973C53.4938 22.5147 55.431 22.8155 57.2153 23.6479C61.0538 25.4387 64.113 28.9584 65.4256 32.976C65.6348 33.6166 65.8693 34.308 66.0043 34.967C66.1148 35.5071 66.1102 36.1102 66.2971 36.6268C66.6077 36.8771 67.2522 36.9182 67.6411 37.0133C67.3231 37.0222 67.0061 37.0031 66.6885 36.9922C65.8916 36.9649 66.2537 36.4518 65.8964 36.1129C65.8806 36.098 65.8636 36.0844 65.8473 36.07C65.8894 36.3073 65.9306 36.5439 65.9629 36.7827C65.8621 36.7144 65.7913 36.6592 65.7404 36.5448C65.6458 36.3317 65.6044 36.04 65.5426 35.8101C65.4158 35.3377 65.2784 34.8751 65.118 34.413C65.0595 33.1347 63.9011 31.1767 63.261 30.0164C63.0049 29.552 62.7788 29.0511 62.4447 28.6367C62.0295 28.1216 61.0211 27.3139 60.7915 26.7763C60.5407 26.5462 60.284 26.3263 60.0219 26.1093C59.2354 25.6029 58.305 25.3159 57.4268 25.008C55.3646 24.2851 53.6727 23.7979 51.531 23.3374C51.38 24.085 51.1911 24.9246 50.5094 25.3756C50.2342 25.5577 49.8635 25.658 49.5337 25.624C48.336 25.6023 48.4182 25.0601 47.8166 24.3014C47.7278 24.1896 47.5927 24.0902 47.4908 23.9869L47.5222 23.9427C47.4839 23.9048 47.3925 23.7896 47.3492 23.7718C47.1171 23.6764 46.5936 23.9718 46.2845 23.9364C46.8556 23.7163 47.4717 23.6093 48.0544 23.4191C48.0742 23.2972 48.0566 23.1669 48.0507 23.0436C48.2693 20.4029 48.1528 17.7296 48.2795 15.0827C48.3102 14.44 48.4033 13.8096 48.5041 13.1748C48.5569 12.8418 48.656 12.4892 48.6492 12.1528Z" fill="#B65F14"/>
    <path d="M51.5845 22.4308C54.6511 22.9285 57.5515 24.162 60.0371 26.0258L60.0465 26.0825L60.0218 26.1093C59.2354 25.6028 58.3049 25.3159 57.4268 25.008C55.3646 24.285 53.6727 23.7978 51.531 23.3374C51.5505 23.0358 51.5763 22.7328 51.5845 22.4308Z" fill="#605873"/>
    <path d="M60.7915 26.7762C62.9393 28.5687 64.4759 31.2612 65.2982 33.9068C65.4621 34.4342 65.6789 35.7326 65.8474 36.07C65.8895 36.3072 65.9307 36.5438 65.9629 36.7827C65.8621 36.7143 65.7913 36.6592 65.7404 36.5447C65.6458 36.3316 65.6044 36.0399 65.5427 35.81C65.4158 35.3377 65.2784 34.8751 65.1181 34.413C65.0596 33.1346 63.9012 31.1766 63.261 30.0164C63.0049 29.5519 62.7788 29.051 62.4447 28.6367C62.0295 28.1216 61.0211 27.3138 60.7915 26.7762Z" fill="#DCCDC0"/>
    <path d="M48.0544 23.4191C48.1554 24.0913 48.3664 24.9945 48.9564 25.407C49.1284 25.5273 49.3283 25.5918 49.5337 25.624C48.336 25.6023 48.4182 25.0601 47.8166 24.3014C47.7278 24.1896 47.5927 24.0902 47.4908 23.9869L47.5222 23.9427C47.4839 23.9048 47.3925 23.7896 47.3492 23.7718C47.1171 23.6764 46.5936 23.9718 46.2845 23.9364C46.8556 23.7163 47.4717 23.6093 48.0544 23.4191Z" fill="#DCCDC0"/>
    <path d="M49.5363 11.6186C49.6998 11.6035 49.8594 11.594 50.0188 11.643C50.4121 11.7637 50.7218 12.0208 50.8987 12.3923C51.1402 12.8993 51.2548 13.4773 51.3214 14.0315C51.5235 15.7138 51.4483 17.4669 51.4268 19.1589C51.4114 20.367 51.4429 21.611 51.3013 22.812C51.2399 23.2985 51.1262 23.7771 50.9623 24.2394C50.7842 24.7378 50.6189 24.9466 50.1349 25.1744C50.0651 25.1815 49.9963 25.1893 49.9261 25.1878C49.6213 25.1812 49.3575 25.0649 49.1559 24.8352C48.1489 23.6882 48.2635 18.1542 48.3681 16.5454C48.4361 15.4968 48.485 13.1782 48.9519 12.2709C49.0929 11.9968 49.3091 11.8184 49.5363 11.6186Z" fill="#F9C288"/>
    <path d="M69.6578 35.7059C69.7338 36.1864 69.8072 36.6648 69.8354 37.1512L72.4539 37.3582C73.0628 37.4066 73.7053 37.4108 74.2968 37.5701C74.5819 37.647 74.8086 37.7683 75.0502 37.9343C75.3629 38.389 75.5661 38.8462 75.4732 39.4123C75.4443 39.5883 75.3788 39.7514 75.3128 39.916C75.0554 40.3519 74.7604 40.6134 74.2621 40.7482C73.4077 40.9792 70.0874 40.4239 69.7941 40.6284L69.743 40.9232C69.6775 40.8319 69.6958 40.8772 69.6734 40.7756C69.6561 40.697 69.6354 40.6368 69.6032 40.5634L69.4884 40.5227C68.7496 40.5109 67.3398 40.2677 66.7131 40.3657C66.6148 40.3812 66.5326 40.4265 66.4596 40.4933C66.3232 40.6181 66.231 40.8065 66.1679 40.9772C66.0021 41.4261 65.9331 41.9243 65.826 42.3902C65.6743 43.0495 65.4655 43.7251 65.2226 44.3561C64.5553 46.0894 63.2715 48.396 61.881 49.6405C58.5868 52.8874 56.1689 53.8571 51.6788 54.7172C51.5425 54.6717 51.5149 54.6872 51.4512 54.5609L51.5212 54.5184C52.1565 54.3634 52.8137 54.2593 53.4558 54.1327C56.9678 53.2846 59.2526 51.915 61.7957 49.3694L62.2459 48.8328C62.2485 48.8315 62.2515 48.8305 62.2537 48.8286C62.5606 48.5753 62.8125 48.1465 63.0505 47.8245C64.7008 45.5917 65.5577 42.9902 66.0089 40.2771C64.9555 40.1593 63.6963 40.2274 62.7297 39.7739C62.6933 39.7444 62.6573 39.7144 62.6219 39.6838C62.2604 39.3707 62.0253 38.9457 62.0068 38.462C61.9874 37.9522 62.1981 37.574 62.5294 37.2106C62.6898 37.0953 62.8491 37.0143 63.0281 36.9315C63.6847 36.7071 65.7253 37.0269 65.9769 36.8148L65.9629 36.7827C65.9307 36.5439 65.8895 36.3072 65.8474 36.07C65.8637 36.0844 65.8807 36.098 65.8964 36.1129C66.2537 36.4518 65.8916 36.9649 66.6885 36.9922C67.0062 37.003 67.3231 37.0222 67.6411 37.0133C68.2194 37.0277 68.8056 37.0631 69.3812 37.1202L69.4876 37.1213C69.9343 36.7744 69.4467 36.1359 69.6578 35.7059Z" fill="#A44C05"/>
    <path d="M75.2206 39.8763C75.1461 39.98 75.07 40.0817 74.9815 40.1741C74.7276 40.4397 74.5045 40.5649 74.1352 40.5748C72.6427 40.615 71.1346 40.2803 69.6496 40.1567C67.6636 39.9914 65.6439 40.0043 63.6731 39.6878C63.3225 39.6315 62.9937 39.6027 62.7304 39.3439C62.4548 39.073 62.3496 38.6826 62.3516 38.305C62.3532 37.9806 62.4045 37.6555 62.6517 37.4256C63.3663 36.7611 65.532 37.1255 66.4742 37.156C68.2271 37.3076 69.9895 37.3786 71.7452 37.4977C72.5603 37.5529 73.4367 37.5429 74.2304 37.7338C74.4508 37.7868 74.5977 37.8675 74.7674 38.0139C74.9559 38.1556 75.0985 38.3204 75.2507 38.4982C75.3154 38.8026 75.3346 39.0737 75.3474 39.3829C75.3085 39.5481 75.2749 39.7154 75.2206 39.8763Z" fill="#F9C288"/>
    <path d="M75.2206 39.8763C75.1461 39.98 75.07 40.0817 74.9815 40.1741C74.7276 40.4397 74.5045 40.5649 74.1352 40.5748C72.6427 40.615 71.1346 40.2803 69.6496 40.1567C67.6636 39.9914 65.6439 40.0043 63.6731 39.6878C63.3225 39.6315 62.9937 39.6027 62.7304 39.3439C62.4548 39.073 62.3496 38.6826 62.3516 38.305C62.3532 37.9806 62.4045 37.6555 62.6517 37.4256C63.3663 36.7611 65.532 37.1255 66.4742 37.156C68.2271 37.3076 69.9895 37.3786 71.7452 37.4977C72.5603 37.5529 73.4367 37.5429 74.2304 37.7338C74.4508 37.7868 74.5977 37.8675 74.7674 38.0139C74.5324 38.0035 74.3152 37.9406 74.0835 37.9101C73.5758 37.8469 73.0673 37.7904 72.558 37.7408C71.6182 37.658 70.6706 37.6736 69.7298 37.6066C68.9689 37.5525 68.2148 37.424 67.4548 37.371C67.01 37.3401 66.5335 37.2894 66.0886 37.2989C65.2393 37.3172 64.6795 37.4405 63.8146 37.2324L63.8542 37.2286C63.6399 37.1678 63.4574 37.1753 63.2381 37.184C62.9297 37.3585 62.8536 37.4445 62.7579 37.7857C62.6669 38.1102 62.7041 38.503 62.877 38.7958C63.0162 39.0316 63.2972 39.236 63.5654 39.2908C63.9745 39.3745 64.5023 39.3374 64.9263 39.3749C65.9073 39.4617 66.8881 39.5694 67.8707 39.6361C68.5916 39.685 69.3245 39.6781 70.0424 39.7502C70.9477 39.8409 71.8616 39.9496 72.761 40.0849C73.2853 40.1638 73.861 40.329 74.3901 40.3229C74.5281 40.3212 74.732 40.1716 74.8342 40.0855C74.9847 39.9586 75.074 39.7947 75.1726 39.6278C75.2249 39.5392 75.2743 39.4566 75.3474 39.3829C75.3085 39.5481 75.2749 39.7154 75.2206 39.8763Z" fill="#F7BD80"/>
    <path d="M51.5311 23.3374C53.6728 23.7979 55.3647 24.2851 57.4269 25.008C58.305 25.3159 59.2355 25.6028 60.0219 26.1093C60.284 26.3263 60.5408 26.5462 60.7916 26.7763C61.0211 27.3139 62.0295 28.1216 62.4448 28.6367C62.7789 29.0511 63.0049 29.552 63.2611 30.0164C63.9012 31.1767 65.0596 33.1347 65.1181 34.413C65.0059 34.3101 64.5719 33.2061 64.4599 32.9783C63.8313 31.7001 63.1065 30.3427 62.2743 29.1843C61.6684 28.341 60.855 27.4452 60.0219 26.8337C59.3219 26.3199 58.5659 26.0137 57.7761 25.6726C57.0197 25.3458 56.258 24.9794 55.479 24.7122C54.2465 24.2894 53.0084 24.0796 51.7306 23.8722L51.695 23.7821L51.6828 23.8027C52.574 23.539 54.3904 24.5475 55.4011 24.447C55.0928 24.1562 52.295 23.5833 51.6952 23.4683C51.5328 23.8288 51.6048 24.2336 51.4003 24.5978C51.0253 25.2659 50.4434 25.5435 49.7394 25.7274L49.832 25.8175C49.7414 25.9136 49.5557 25.9705 49.425 25.9803C48.9353 26.0168 48.4215 25.7165 48.0628 25.4085L48.1142 25.3743L48.1217 25.3129C47.9772 25.2538 47.8242 25.2152 47.7359 25.0781C47.837 25.0467 47.7925 25.066 47.871 25.0243C47.8589 24.2241 46.8855 24.4459 46.7434 24.2917C46.9415 24.298 47.1197 24.1694 47.2888 24.0772L47.2201 24.0802L47.2997 23.9796L47.4909 23.9869C47.5928 24.0901 47.7279 24.1895 47.8166 24.3014C48.4183 25.0601 48.3361 25.6022 49.5337 25.6239C49.8636 25.658 50.2342 25.5577 50.5095 25.3756C51.1912 24.9246 51.38 24.085 51.5311 23.3374Z" fill="#CFC4B7"/>
    <path d="M63.6382 46.2972C64.4238 44.6604 65.195 42.9332 65.4165 41.1143C65.4381 41.1173 65.461 41.1152 65.4813 41.1231C65.5041 41.132 65.5223 41.15 65.5428 41.1634L65.5485 41.0273C65.4972 40.9586 65.4333 40.9528 65.3543 40.9302L65.2946 40.9137L65.2562 40.789C65.3915 40.7783 65.4764 40.7821 65.6101 40.8195C65.6622 41.0009 65.651 41.1138 65.6173 41.2995L65.605 41.3638C65.6209 41.3501 65.6403 41.3398 65.6526 41.3228C65.7867 41.1362 65.9081 40.6273 65.8909 40.4067C65.6108 40.2749 63.9758 40.1434 63.6196 40.1766L63.6103 40.204C63.9564 40.3205 64.3212 40.2791 64.6779 40.3429C64.801 40.365 64.8996 40.3758 64.974 40.4774L64.9126 40.5344C64.5824 40.5953 64.216 40.5427 63.8834 40.5105C63.0111 40.4263 62.2679 40.197 61.6973 39.4826C61.4132 39.127 61.3578 38.7346 61.4162 38.2922C61.4729 37.8634 61.6359 37.3637 62 37.1015C62.3334 36.8616 62.6388 36.8694 63.0281 36.9314C62.8491 37.0142 62.6899 37.0953 62.5294 37.2105C62.1982 37.574 61.9874 37.9521 62.0069 38.462C62.0253 38.9457 62.2604 39.3707 62.6219 39.6838C62.6573 39.7143 62.6933 39.7444 62.7297 39.7739C63.6963 40.2273 64.9555 40.1593 66.0089 40.277C65.5577 42.9901 64.7008 45.5917 63.0505 47.8245C62.8125 48.1465 62.5607 48.5753 62.2537 48.8286C62.2515 48.8305 62.2486 48.8314 62.2459 48.8328C62.2333 48.5846 62.8476 47.9353 63.0185 47.6937C63.58 46.8892 64.0803 46.0438 64.5154 45.1644C64.5657 45.0623 64.5623 45.006 64.5204 44.9052L64.4608 44.9465C64.4112 45.1482 63.8322 46.0816 63.6821 46.2493C63.6677 46.2654 63.6529 46.2812 63.6382 46.2972Z" fill="#DCCDC0"/>
    <path d="M62.7297 39.7739C62.475 39.6969 62.2296 39.6176 62.0325 39.4299C61.7459 39.1571 61.6246 38.8023 61.6315 38.4112C61.6383 38.0178 61.7859 37.5533 62.082 37.2804C62.177 37.1928 62.3047 37.112 62.4374 37.1141L62.5294 37.2105C62.1981 37.574 61.9874 37.9521 62.0068 38.462C62.0253 38.9457 62.2603 39.3707 62.6218 39.6838C62.6573 39.7143 62.6932 39.7444 62.7297 39.7739Z" fill="#CFC4B7"/>
    <path d="M47.9607 54.4643C47.8931 53.705 47.8048 52.798 48.2785 52.1365C48.4001 51.9667 48.4695 51.8997 48.6719 51.8605C48.5175 52.0776 48.3667 52.2831 48.3101 52.5494C48.1003 53.1362 48.3102 54.0043 48.0974 54.4743C48.0548 54.4739 47.9998 54.4815 47.9607 54.4643Z" fill="#DCCDC0"/>
    <path d="M51.4513 54.2124C52.0538 54.186 52.9065 53.8903 53.4558 54.1327C52.8137 54.2593 52.1566 54.3634 51.5212 54.5184C51.4652 54.4154 51.4639 54.3269 51.4513 54.2124Z" fill="#DCCDC0"/>
    <path d="M46.3995 35.8902C47.6501 34.3968 49.7143 33.868 51.5289 34.5761C53.3437 35.2842 54.5041 37.0713 54.4127 39.0171C54.3213 40.9629 52.9984 42.6334 51.1253 43.1682C49.2082 43.7157 47.1584 42.9479 46.0727 41.2758C44.9869 39.6037 45.1195 37.4187 46.3995 35.8902Z" fill="#434E61"/>
    <path d="M21.1861 82L22.9972 71.0909H30.5025L30.1296 73.3015H25.3462L25 75.4375H29.3146L28.9364 77.6481H24.6271L23.908 82H21.1861ZM41.1905 76.7212C40.9952 77.9002 40.6046 78.8928 40.0186 79.6989C39.4363 80.505 38.7278 81.1158 37.8933 81.5312C37.0623 81.9432 36.171 82.1491 35.2193 82.1491C34.2072 82.1491 33.3301 81.9254 32.5879 81.478C31.8493 81.0305 31.3113 80.3807 30.9739 79.5284C30.6401 78.6726 30.5762 77.6321 30.7821 76.407C30.9739 75.228 31.361 74.2319 31.9434 73.4187C32.5257 72.6055 33.236 71.9893 34.074 71.5703C34.9157 71.1513 35.8159 70.9418 36.7747 70.9418C37.7797 70.9418 38.6515 71.1673 39.3901 71.6183C40.1287 72.0657 40.665 72.7209 40.9988 73.5838C41.3326 74.4432 41.3965 75.489 41.1905 76.7212ZM38.4579 76.407C38.5645 75.7358 38.5662 75.1712 38.4632 74.7131C38.3638 74.255 38.1632 73.9105 37.8613 73.6797C37.5595 73.4453 37.1653 73.3281 36.6788 73.3281C36.1284 73.3281 35.6365 73.4631 35.2033 73.733C34.7701 73.9993 34.4078 74.3864 34.1167 74.8942C33.829 75.3984 33.6284 76.0075 33.5147 76.7212C33.394 77.396 33.3887 77.9588 33.4988 78.4098C33.6088 78.8608 33.8184 79.1999 34.1273 79.4272C34.4363 79.6509 34.8322 79.7628 35.3152 79.7628C35.8549 79.7628 36.3397 79.6332 36.7694 79.3739C37.199 79.1112 37.5577 78.7294 37.8453 78.2287C38.133 77.728 38.3372 77.1207 38.4579 76.407ZM52.9133 75.0859H50.1913C50.2055 74.8125 50.1807 74.5692 50.1167 74.3562C50.0564 74.1396 49.9569 73.9549 49.8184 73.8022C49.68 73.646 49.5042 73.5288 49.2911 73.4506C49.0816 73.369 48.8366 73.3281 48.556 73.3281C48.0127 73.3281 47.5226 73.4631 47.0858 73.733C46.6526 74.0028 46.2886 74.3899 45.9939 74.8942C45.7027 75.3984 45.4967 76.0021 45.376 76.7053C45.2694 77.3871 45.2694 77.9553 45.376 78.4098C45.4861 78.8608 45.6938 79.1999 45.9992 79.4272C46.3081 79.6509 46.7006 79.7628 47.1764 79.7628C47.4854 79.7628 47.773 79.7255 48.0393 79.6509C48.3057 79.5763 48.5454 79.468 48.7584 79.326C48.9715 79.1839 49.1562 79.0117 49.3124 78.8093C49.4687 78.6069 49.5894 78.3814 49.6746 78.1328H52.4179C52.29 78.6087 52.077 79.0845 51.7787 79.5604C51.4839 80.0362 51.1075 80.4695 50.6494 80.8601C50.1913 81.2472 49.6586 81.5597 49.0514 81.7976C48.4442 82.032 47.7677 82.1491 47.0219 82.1491C46.0099 82.1491 45.1398 81.9254 44.4118 81.478C43.6839 81.027 43.1565 80.3718 42.8298 79.5124C42.5067 78.6531 42.4427 77.6108 42.6381 76.3857C42.8369 75.2031 43.2258 74.207 43.8046 73.3974C44.387 72.5877 45.0937 71.9769 45.9246 71.565C46.7556 71.1495 47.6416 70.9418 48.5827 70.9418C49.2716 70.9418 49.8912 71.0341 50.4417 71.2188C50.9956 71.4034 51.4644 71.6715 51.8479 72.0231C52.2314 72.3746 52.5155 72.8079 52.7002 73.3228C52.8849 73.8342 52.9559 74.4219 52.9133 75.0859ZM61.6051 71.0909H64.3271L63.1605 78.1115C63.0291 78.9318 62.7184 79.6438 62.2283 80.2475C61.7418 80.8477 61.1222 81.3129 60.3693 81.6431C59.6165 81.9734 58.7784 82.1385 57.8551 82.1385C56.9247 82.1385 56.1399 81.9734 55.5007 81.6431C54.8615 81.3129 54.3981 80.8477 54.1104 80.2475C53.8228 79.6438 53.7464 78.9318 53.8814 78.1115L55.0479 71.0909H57.7699L56.646 77.8771C56.5856 78.2429 56.6122 78.5696 56.7259 78.8572C56.843 79.1413 57.0312 79.3651 57.2905 79.5284C57.5533 79.6882 57.8729 79.7681 58.2493 79.7681C58.6293 79.7681 58.9773 79.6882 59.2933 79.5284C59.6094 79.3651 59.8704 79.1413 60.0763 78.8572C60.2859 78.5696 60.419 78.2429 60.4759 77.8771L61.6051 71.0909ZM71.2491 74.4148C71.2775 74.0277 71.1763 73.7276 70.9455 73.5146C70.7182 73.2979 70.3507 73.1896 69.8429 73.1896C69.5126 73.1896 69.2321 73.2322 69.0012 73.3175C68.7704 73.3991 68.5893 73.5128 68.4579 73.6584C68.3265 73.804 68.2449 73.9727 68.2129 74.1644C68.1809 74.3136 68.188 74.4485 68.2342 74.5692C68.2804 74.6864 68.3638 74.793 68.4846 74.8888C68.6088 74.9812 68.7633 75.0629 68.948 75.1339C69.1326 75.2013 69.3457 75.2617 69.5872 75.315L70.4714 75.5227C71.0076 75.6435 71.4675 75.8033 71.851 76.0021C72.2381 76.1974 72.5488 76.4336 72.7832 76.7106C73.0211 76.984 73.1809 77.2965 73.2626 77.6481C73.3478 77.9996 73.3549 78.3903 73.2839 78.82C73.1667 79.5195 72.8933 80.1161 72.4636 80.6097C72.0339 81.1033 71.4728 81.4815 70.7804 81.7443C70.0879 82.0071 69.2853 82.1385 68.3727 82.1385C67.4529 82.1385 66.6717 82 66.0289 81.723C65.3897 81.4425 64.9263 81.0199 64.6387 80.4553C64.3546 79.8906 64.28 79.1768 64.415 78.3139H67.0197C66.9771 78.6584 67.0179 78.9478 67.1422 79.1822C67.2701 79.413 67.4672 79.5888 67.7335 79.7095C67.9998 79.8267 68.3265 79.8853 68.7136 79.8853C69.0581 79.8853 69.3581 79.8409 69.6138 79.7521C69.8695 79.6598 70.0737 79.5337 70.2264 79.3739C70.3826 79.2106 70.4767 79.0241 70.5087 78.8146C70.5407 78.6229 70.5087 78.456 70.4128 78.3139C70.3169 78.1719 70.15 78.0476 69.9121 77.9411C69.6777 77.831 69.367 77.7315 68.9799 77.6428L67.9039 77.3871C66.9949 77.1705 66.3077 76.8207 65.8425 76.3377C65.3773 75.8512 65.2122 75.1889 65.3471 74.3509C65.4608 73.669 65.7431 73.0724 66.1941 72.5611C66.6451 72.0497 67.2186 71.652 67.9146 71.3679C68.6142 71.0838 69.3848 70.9418 70.2264 70.9418C71.0787 70.9418 71.796 71.0874 72.3784 71.3786C72.9608 71.6662 73.3816 72.071 73.6408 72.593C73.9 73.1115 73.9728 73.7187 73.8592 74.4148H71.2491Z" fill="#8A788E"/>
  </g>
  <defs>
    <linearGradient gradientUnits="userSpaceOnUse" id="paint0_linear_80_861" x1="44.4478" x2="43.9111" y1="24.6026" y2="23.5468">
      <stop stop-color="#6E5671"/>
      <stop offset="1" stop-color="#88738F"/>
    </linearGradient>
    <clipPath id="clip0_80_861">
      <rect fill="#333333" height="100" width="100"/>
    </clipPath>
  </defs>
</svg>
