<?xml version="1.0" encoding="utf-8"?>
<svg height="1024" viewBox="0 0 1024 1024" width="1024" xmlns="http://www.w3.org/2000/svg" xmlns:xlink="http://www.w3.org/1999/xlink">
<path d="M0 0L1024 0L1024 1024L0 1024L0 0Z" fill="#FEFEFD"/>
<path d="M432.603 536.464C429.351 512.222 417.356 489.633 403.391 469.856C399.872 464.871 395.942 460.185 392.359 455.246C364.265 416.523 347.507 381.983 350.962 332.863C353.11 302.327 365.878 271.55 384.333 247.294C409.236 214.566 448.217 191.287 489.084 185.817C531.489 179.791 574.529 191.162 608.424 217.347C640.551 242.034 663.758 279.855 669.078 320.188C675.317 367.483 666.028 409.473 636.591 447.6C629.423 456.885 621.789 466.045 615.236 475.769C602.808 494.415 594.409 515.45 590.578 537.529C588.037 536.711 585.303 536.289 582.69 535.735C582.068 540.024 580.793 541.462 577.294 544.036C565.581 552.655 548.943 555.577 534.887 557.801C531.778 559.14 526.011 558.999 522.569 559.397C515.09 559.608 507.604 559.498 500.134 559.065C496.407 558.866 492.686 558.574 488.974 558.19C485.546 557.234 481.968 556.88 478.485 556.154C465.827 553.514 453.924 549.909 443.175 542.499C442.393 540.681 441.789 538.788 441.148 536.917C438.081 535.956 435.757 535.828 432.603 536.464Z" fill="#FDE9CF"/>
<path d="M470.626 423.806C467.683 402.662 465.295 381.385 462.559 360.205L459.61 335.705C459.211 332.571 458.286 329.47 458.137 326.315C458.024 323.916 458.083 321.078 459.312 318.934C459.952 317.818 460.917 316.906 462.218 316.654C466.633 315.797 471.198 322.173 473.956 325.062C493.571 345.61 516.948 365.725 542.888 377.76C547.199 379.766 551.606 381.558 556.094 383.13C561.068 384.832 566.502 385.858 570.997 388.668C572.778 391.767 571.019 396.854 570.37 400.218C567.148 408.991 565.905 418.853 563.567 427.912C553.399 467.315 542.289 506.42 535.174 546.541C534.693 549.253 532.938 554.799 533.94 557.384L534.887 557.801C531.778 559.14 526.011 558.999 522.569 559.397C515.09 559.608 507.604 559.498 500.134 559.065C496.407 558.866 492.686 558.574 488.974 558.19C488.772 551.205 487.272 544.037 486.189 537.132L480.897 503.058C476.957 476.687 474.204 450.213 470.626 423.806Z" fill="#F4AD4B"/>
<defs>
<linearGradient gradientUnits="userSpaceOnUse" id="gradient_0" x1="519.05188" x2="513.48486" y1="558.08173" y2="391.332">
<stop offset="0" stop-color="#FEDFAE"/>
<stop offset="1" stop-color="#FEFBFB"/>
</linearGradient>
</defs>
<path d="M477.308 391.784C494.685 393.014 501.599 405.472 513.819 415.677C525.006 425.019 537.412 430.037 551.804 431.982C543.438 461.706 535.346 491.801 528.871 521.998C527.804 526.972 522.776 558.997 522.569 559.397C515.09 559.608 507.604 559.498 500.134 559.065C498.239 548.964 496.882 538.743 495.292 528.589C491.03 500.694 487.104 472.75 483.515 444.761C481.341 427.115 479.633 409.411 477.308 391.784Z" fill="url(#gradient_0)"/>
<path d="M470.466 337.261C473.976 339.087 482.026 348.326 485.806 351.562C508.832 371.271 531.284 386.715 560.581 395.833C558.992 402.592 557.363 409.341 555.694 416.081L554.19 421.147C535.897 420.156 524.515 411.448 512.23 398.724C507.441 393.764 502.554 388.943 496.302 385.853C489.887 382.683 483.368 381.687 476.298 381.235C474.718 366.541 472.136 351.954 470.466 337.261Z" fill="#FEFEFD"/>
<path d="M432.603 536.464C429.351 512.222 417.356 489.633 403.391 469.856C399.872 464.871 395.942 460.185 392.359 455.246C364.265 416.523 347.507 381.983 350.962 332.863C353.11 302.327 365.878 271.55 384.333 247.294C409.236 214.566 448.217 191.287 489.084 185.817C531.489 179.791 574.529 191.162 608.424 217.347C640.551 242.034 663.758 279.855 669.078 320.188C675.317 367.483 666.028 409.473 636.591 447.6C629.423 456.885 621.789 466.045 615.236 475.769C602.808 494.415 594.409 515.45 590.578 537.529C588.037 536.711 585.303 536.289 582.69 535.735C587.084 506.252 600.139 480.26 618.302 456.856C627.137 445.472 636.558 434.46 643.736 421.909C647.812 414.782 650.772 407.451 653.585 399.764C671.651 350.598 663.815 295.645 632.725 253.489C609.235 221.847 574.263 200.691 535.333 194.571C494.309 188.52 454.367 198.2 421.047 223.066C387.946 247.892 366.113 284.893 360.386 325.871C358.066 342.15 358.503 357.971 361.721 374.077C364.404 387.51 368.758 400.059 375.071 412.221C397.552 455.525 435 485.162 441.148 536.917C438.081 535.956 435.757 535.828 432.603 536.464Z" fill="#B2ACE1"/>
<path d="M470.626 423.806L470.352 425.845L470.125 426.001C469.085 421.032 469.983 414.621 467.914 410.088C467.81 409.861 467.69 409.641 467.582 409.415C465.389 404.864 461.843 401.186 459.145 396.937C454.184 389.122 449.061 371.748 448.899 362.581C448.669 349.596 452.134 336.279 456.432 324.151C457.148 322.13 457.821 319.065 459.351 317.588C462.93 314.132 468.352 313.103 472.883 311.403C478.218 309.402 483.382 306.476 488.833 304.856C496.164 302.679 509.709 302.932 517.433 303.175L518.694 301.888C520.866 302.258 519.22 302.491 519.902 303.791C519.909 303.804 521.48 304.274 521.573 304.303C524.464 305.192 527.748 305.92 530.482 307.199C532.747 308.258 549.574 319.833 551.058 321.51C558 329.353 565.916 355.251 562.651 365.562C561.455 369.341 556.819 372.796 556.507 376.381C557.348 378.224 557.512 379.608 557.503 381.633C557.502 381.856 557.496 382.079 557.493 382.301C560.343 386.096 568.446 383.979 571.73 387.816C572.615 388.849 573.03 390.061 572.865 391.421C572.635 393.319 571.766 399.066 570.37 400.218C571.019 396.854 572.778 391.767 570.997 388.668C566.502 385.858 561.068 384.832 556.094 383.13C551.606 381.558 547.199 379.766 542.888 377.76C516.948 365.725 493.571 345.61 473.956 325.062C471.198 322.173 466.633 315.797 462.218 316.654C460.917 316.906 459.952 317.818 459.312 318.934C458.083 321.078 458.024 323.916 458.137 326.315C458.286 329.47 459.211 332.571 459.61 335.705L462.559 360.205C465.295 381.385 467.683 402.662 470.626 423.806Z" fill="#FEFEFD"/>
<path d="M471.28 229.62C474.454 229.298 477.282 229.083 480.306 230.399C484.725 232.322 487.933 235.878 489.673 240.35C491.362 244.691 491.529 249.501 489.431 253.733C488.098 256.423 485.937 258.675 483.612 260.535C478.505 264.621 454.106 277.723 447.392 279.908C443.656 280.8 440.237 280.751 436.63 279.269C432.605 277.599 429.454 274.335 427.927 270.254C426.216 265.692 426.853 260.629 428.94 256.302C430.353 253.386 432.432 250.844 435.01 248.88C437.707 246.853 441.056 245.51 444.007 243.854C452.833 238.901 461.728 233.023 471.28 229.62Z" fill="#FEFEFD"/>
<path d="M409.189 285.081C411.34 285.301 413.341 285.524 415.189 286.738C417.193 288.055 418.432 289.916 418.886 292.269C420.345 299.825 411.389 309.379 408.348 316.195C405.977 321.511 404.378 327.476 402.691 333.052C400.991 338.671 400.135 344.781 399.602 350.615C399.073 356.403 400.431 371.201 397.469 375.391C395.514 378.157 392.264 378.884 389.118 379.397C387.843 379.323 386.329 379.13 385.207 378.493C382.539 376.977 381.074 373.689 380.363 370.845C379.032 365.529 379.53 359.641 379.991 354.247C381.584 333.38 387.914 313.151 398.498 295.097C401.182 290.519 403.801 286.508 409.189 285.081Z" fill="#FEFEFD"/>
<path d="M582.69 535.735C585.303 536.289 588.037 536.711 590.578 537.529C594.612 545.314 593.283 556.129 593.297 564.763C593.298 566.516 593.096 567.495 593.97 569.039C595.942 570.142 597.935 569.724 600.064 570.126C603.564 570.788 607.342 572.403 610.752 573.499C633.989 580.971 674.212 595.906 681.555 621.698C683.857 629.781 683.471 665.438 682.923 675.625C682.994 685.228 678.707 693.468 672.026 700.169C641.508 730.78 564.67 742.228 522.954 742.543C479.224 742.873 436.949 738.707 395.512 723.996C380.177 718.552 364.545 711.754 352.86 700.098C339.966 687.235 340.484 677.665 340.471 660.605L340.503 632.857C340.137 626.987 341.158 621.272 343.938 616.057C355.048 595.213 387.705 581.563 409.308 574.588C416.116 572.39 423.083 570.869 429.921 568.799C430.47 560.145 428.253 548.789 431.357 540.671C431.833 539.425 432.192 538.264 432.491 536.963L432.603 536.464C435.757 535.828 438.081 535.956 441.148 536.917C441.789 538.788 442.393 540.681 443.175 542.499C453.924 549.909 465.827 553.514 478.485 556.154C481.968 556.88 485.546 557.234 488.974 558.19C492.686 558.574 496.407 558.866 500.134 559.065C507.604 559.498 515.09 559.608 522.569 559.397C526.011 558.999 531.778 559.14 534.887 557.801C548.943 555.577 565.581 552.655 577.294 544.036C580.793 541.462 582.068 540.024 582.69 535.735Z" fill="#B2ACE1"/>
<path d="M340.503 632.857C341.658 634.896 341.962 638.119 343.696 639.638C349.308 645.944 353.649 652.005 360.51 657.176C389.819 679.265 445.794 689.477 482.218 691.576C531.852 694.438 594.559 691.357 640.69 671.21C646.15 668.825 651.816 666.045 656.778 662.736C659.765 660.744 671.774 650.163 673.787 649.747C677.772 645.358 679.936 640.636 682.264 635.265C682.472 643.449 682.536 651.636 682.458 659.823C682.451 664.965 682.058 670.558 682.923 675.625C682.994 685.228 678.707 693.468 672.026 700.169C641.508 730.78 564.67 742.228 522.954 742.543C479.224 742.873 436.949 738.707 395.512 723.996C380.177 718.552 364.545 711.754 352.86 700.098C339.966 687.235 340.484 677.665 340.471 660.605L340.503 632.857Z" fill="#9999D1"/>
<path d="M343.696 639.638C349.308 645.944 353.649 652.005 360.51 657.176C389.819 679.265 445.794 689.477 482.218 691.576C531.852 694.438 594.559 691.357 640.69 671.21C646.15 668.825 651.816 666.045 656.778 662.736C659.765 660.744 671.774 650.163 673.787 649.747C664.902 660.271 653.912 667.984 641.672 674.142C578.087 706.132 475.816 706.328 409.145 684.213C385.017 676.209 355.687 663.475 343.696 639.638Z" fill="#FEFEFD"/>
<path d="M582.69 535.735C585.303 536.289 588.037 536.711 590.578 537.529C594.612 545.314 593.283 556.129 593.297 564.763C593.168 571.563 590.714 573.73 589.804 579.467C588.397 588.329 590.855 593.907 587.11 603.097C581.745 613.106 575.646 618.982 566.014 624.893C559.268 640.386 547.082 652.521 531.26 658.722C513.393 665.725 495.435 663.921 478.165 656.147C472.629 653.656 468.446 649.531 463.594 646.029C460.576 642.485 456.996 638.739 454.607 634.754C452.164 630.678 450.564 626.063 447.745 622.211C442.875 615.559 434.444 611.873 432.436 603.109C430.656 595.342 432.527 586.505 431.969 578.554C431.739 575.273 430.419 572.086 429.921 568.799C430.47 560.145 428.253 548.789 431.357 540.671C431.833 539.425 432.192 538.264 432.491 536.963L432.603 536.464C435.757 535.828 438.081 535.956 441.148 536.917C441.789 538.788 442.393 540.681 443.175 542.499C453.924 549.909 465.827 553.514 478.485 556.154C481.968 556.88 485.546 557.234 488.974 558.19C492.686 558.574 496.407 558.866 500.134 559.065C507.604 559.498 515.09 559.608 522.569 559.397C526.011 558.999 531.778 559.14 534.887 557.801C548.943 555.577 565.581 552.655 577.294 544.036C580.793 541.462 582.068 540.024 582.69 535.735Z" fill="#E99632"/>
<path d="M583.453 550.5C585.32 553.821 583.732 570.779 583.48 575.452C570.13 585.566 551.697 592.514 535.389 595.645C503.364 601.793 468.383 595.609 441.256 577.097C440.461 576.272 438.985 575.497 438.016 574.835C437.885 566.675 438.244 558.508 438.508 550.352L438.906 550.655C446.151 556.071 454.229 559.012 462.777 561.746C491.042 570.788 528.04 571.48 556.444 562.535C565.996 559.527 574.592 555.078 583.453 550.5Z" fill="#F4AD4B"/>
<path d="M439.344 585.338C450.989 593.125 462.775 598.533 476.289 602.222C513.307 612.327 549.152 604.949 581.943 586.31C582.063 593.407 582.363 599.171 578.574 605.538C577.759 606.778 576.843 607.874 575.828 608.958C560.883 624.922 533.78 628.644 512.938 629.301C492.587 629.943 461.307 625.089 445.921 610.43C438.06 602.941 439.539 595.303 439.344 585.338Z" fill="#F4AD4B"/>
<path d="M458.367 627.584C493.95 639.807 522.321 642.664 558.156 628.105C555.922 632.331 553.504 635.816 550.179 639.264C545.29 644.052 539.553 647.889 533.261 650.579C517.155 657.349 501.158 656.376 485.266 649.714C475.678 645.695 462.521 637.614 458.367 627.584Z" fill="#F4AD4B"/>
<path d="M587.11 603.097C587.343 603.168 587.574 603.245 587.808 603.31C591.749 604.419 597.572 603.374 601.75 603.38C615.814 603.4 643.455 605.218 651.797 618.743C653.186 620.995 653.818 623.634 653.118 626.228C651.628 631.752 644.559 635.66 639.801 638.139C629.95 643.273 619.304 647.032 608.903 650.872C577.732 662.381 548.052 670.596 514.517 667.923C505.662 667.218 496.688 665.899 488.209 663.185C481.018 660.883 467.565 654.015 464.064 647.262C463.796 646.746 463.751 646.536 463.594 646.029C468.446 649.531 472.629 653.656 478.165 656.147C495.435 663.921 513.393 665.725 531.26 658.722C547.082 652.521 559.268 640.386 566.014 624.893C575.646 618.982 581.745 613.106 587.11 603.097Z" fill="#9999D1"/>
<path d="M253.527 804.145C254.723 804.116 255.864 804.11 257.047 804.321C258.505 804.582 259.271 805.034 260.332 806.089C266.997 812.718 273.161 821.824 279.289 829.214C289.42 841.432 300.493 853.012 309.463 866.143C307.948 853.425 308.481 840.336 308.375 827.538C308.326 821.565 307.508 814.259 308.62 808.429C308.893 806.992 309.451 805.929 310.752 805.208C312.998 803.963 319.957 804.032 322.164 805.127C323.409 805.744 324.329 806.555 324.718 807.914C326.117 812.795 325.925 879.249 325.359 887.556C325.274 888.796 325.027 889.562 324.411 890.631C322.993 891.923 321.57 892.114 319.733 892.503C317.955 892.541 316.094 892.566 314.346 892.208C312.776 891.886 311.489 891.038 310.307 889.986C304.116 884.477 298.946 877.024 293.585 870.675C282.824 857.932 270.545 845.453 261.788 831.221C263.425 843.38 262.488 856.584 262.366 868.857C262.304 875.11 262.854 882.169 261.846 888.333C261.624 889.689 261.402 890.845 260.113 891.571C257.738 892.909 250.689 893.102 248.309 891.766C247.171 891.128 246.572 890.283 246.3 889.036C245.364 884.741 245.942 879.313 245.95 874.861L246.043 847.564C246.072 835.62 245.187 823.348 245.838 811.448C245.924 809.875 246.01 807.754 247.057 806.47C248.511 804.687 251.402 804.488 253.527 804.145Z" fill="#9999D1"/>
<path d="M633.546 840.663C633.606 831.019 632.979 820.814 633.93 811.238C634.133 809.191 634.353 807.706 636.118 806.414C638.41 804.736 643.969 804.625 646.709 805.079C648.278 805.339 649.224 805.933 650.125 807.265C651.588 814.39 651.154 889.194 649.997 891.103C649.007 892.738 646.179 892.778 644.528 892.973C641.786 892.896 637.637 893.01 635.423 891.234C632.163 888.619 633.491 860.249 633.511 854.997C618.777 854.834 604.029 855.004 589.294 855.046C589.23 862.315 589.106 869.591 589.135 876.86C589.149 880.491 589.665 884.451 589.185 888.03C589.024 889.23 588.6 890.962 587.593 891.734C586.505 892.569 584.425 892.652 583.12 892.695C579.687 892.808 574.848 892.627 572.266 890.138C571.159 886.295 570.904 809.606 571.939 807.52C572.738 805.91 574.772 805.514 576.346 805.16C577.681 805.103 579.016 805.063 580.352 805.039C582.919 805.001 586.395 804.782 588.368 806.685C590.757 813.181 589.467 832.765 589.445 840.554L633.546 840.663Z" fill="#9999D1"/>
<path d="M510.423 803.695C518.884 802.353 529.547 803.725 537.57 806.688C542.1 808.362 547.197 811.144 549.146 815.812C550.087 818.063 550.268 820.994 549.255 823.253C548.57 824.779 547.348 825.917 545.746 826.418C540.382 828.091 534.128 821.778 529.628 819.414C522.737 815.794 513.796 815.58 506.447 818.011C498.593 820.632 492.143 826.336 488.583 833.812C484.769 841.866 484.377 852.64 487.463 860.986C489.954 867.724 495.07 873.878 501.715 876.781C511.41 881.015 524.392 879.518 533.879 875.571C533.956 868.49 532.658 857.977 534.639 851.386C536.222 850.245 537.744 849.54 539.713 849.428C542.518 849.269 547.348 849.069 549.364 851.325C552.174 854.468 550.618 877.612 550.532 882.839C542.764 888.759 534.467 892.083 524.755 893.25C510.135 895.008 493.757 892.837 481.925 883.43C473.24 876.526 469.13 866.611 467.979 855.763C466.665 843.385 468.788 830.433 476.813 820.551C485.169 810.26 497.482 805.062 510.423 803.695Z" fill="#9999D1"/>
<path d="M375.509 804.211C384.979 803.923 402.363 805.106 409.637 812.077C410.755 813.148 411.586 814.593 411.478 816.196C411.235 819.801 407.57 823.31 405.219 825.847C402.713 824.754 400.397 823.089 398.026 821.72C391.269 817.819 384.483 815.648 376.605 816.175C371.942 816.487 366.483 817.596 363.35 821.383C361.738 823.33 360.334 826.345 360.637 828.929C361.756 838.475 385.487 841.277 393.014 843.493C397.503 844.815 402.026 846.563 405.757 849.453C410.287 852.962 413.339 858.046 413.873 863.795C414.493 870.476 413.142 878.182 408.537 883.262C400.179 892.483 388.267 893.865 376.559 894.461C366.149 894.591 351.776 892.84 343.386 886.093C341.582 884.642 340.447 882.919 340.334 880.569C340.202 877.835 341.873 875.377 343.662 873.443C344.634 872.392 346.241 870.938 347.787 871.012C351.124 871.171 356.143 876.991 359.454 878.467C364.877 880.884 372.472 881.335 378.338 881.12C383.86 880.917 390.179 879.82 394.01 875.47C395.9 873.323 397.095 870.174 396.838 867.296C395.946 857.296 371.773 854.853 364.181 852.585C359.32 851.133 354.252 849.134 350.35 845.809C345.964 842.072 343.941 836.973 343.604 831.3C343.249 825.322 344.398 818.42 348.553 813.898C355.544 806.291 365.74 804.738 375.509 804.211Z" fill="#9999D1"/>
<path d="M780.585 804.19C792.954 802.94 808.044 806.107 818.132 813.541C816.399 817.33 814.171 821.035 811.797 824.46C803.893 819.274 794.857 817.079 785.446 816.932C780.001 816.848 772.713 817.648 768.717 821.758C766.725 823.806 765.396 827.053 765.621 829.93C766.605 842.46 801.273 841.677 812.743 852.07C817.239 856.144 819.301 861.857 819.467 867.837C819.624 873.459 818.048 879.491 813.937 883.539C804.895 892.44 791.611 893.698 779.625 893.616C772.766 893.547 765.959 892.426 759.441 890.29C755.436 888.982 747.495 886.676 745.469 882.705C745.382 879.018 749.614 874.047 751.647 870.978C761.704 877.567 773.22 881.149 785.298 880.761C790.334 880.599 796.945 879.393 800.415 875.446C801.97 873.678 802.7 871.498 802.386 869.15C800.851 857.666 779.244 856.407 770.371 853.961C765.448 852.604 760.61 850.645 756.46 847.626C752.124 844.472 748.946 840.38 748.185 834.964C747.348 829.009 748.89 821.36 752.647 816.515C759.091 808.207 770.668 805.337 780.585 804.19Z" fill="#9999D1"/>
<path d="M700.634 805.766C707.428 805.529 714.207 805.598 721.002 805.514C724.538 805.47 728.237 805.054 731.757 805.482C733.335 805.673 735.007 806.099 736.208 807.204C737.476 808.37 737.705 810.07 737.773 811.701C737.866 813.943 737.431 816.179 735.789 817.816C731.723 821.869 716.497 820.064 710.493 820.041L710.549 865.126C710.598 872.587 711.49 881.173 710.43 888.529C710.297 889.454 710.082 890.108 709.423 890.799C707.783 892.521 705.005 892.537 702.785 892.773C700.189 892.822 696.434 892.975 694.43 891.078C693.53 890.227 693.32 889.252 693.185 888.051C692.355 880.629 692.975 872.561 692.989 865.08L692.947 820.534C687.1 820.433 672.421 821.338 667.977 818.39C666.861 817.65 666.135 816.641 665.983 815.296C665.671 812.546 665.657 809.131 667.372 806.832C671.452 804.836 694.813 805.845 700.634 805.766Z" fill="#9999D1"/>
<path d="M312.216 449.837C315.962 453.899 319.013 458.862 322.66 463.083C329.445 470.936 337.287 477.248 345.423 483.608C339.154 488.639 332.616 493.087 326.907 498.805C321.488 504.233 317.118 511.31 311.016 515.923C301.6 502.713 289.96 493.245 277.2 483.489C281.954 479.451 287.138 475.904 291.912 471.869C299.633 465.342 306.167 457.895 312.216 449.837Z" fill="#F4AD4B"/>
<path d="M822.271 513.827C823.146 514.121 823.752 514.612 824.395 515.262C828.891 519.809 832.974 524.921 837.27 529.669C842.637 535.6 848.278 541.205 854.035 546.755C843.297 557.056 832.444 567.012 822.756 578.339C813.517 566.745 801.943 556.275 790.786 546.563C801.548 535.801 812.179 525.245 822.271 513.827Z" fill="#F4AD4B"/>
<path d="M332.778 189.758C335.47 191.815 337.706 196.039 340.012 198.685C347.446 207.211 357.151 217.036 366.901 222.743C354.144 232.896 344.114 241.648 333.375 254.093C330.76 253.029 325.489 245.216 323.261 242.733C316.256 234.931 307.616 228.166 299.112 222.105C302.602 219.229 306.474 216.798 310.013 213.966C318.669 207.037 326.231 198.679 332.778 189.758Z" fill="#F4AD4B"/>
<path d="M719.531 361.916C723.871 364.641 734.28 376.835 738.594 381.259C742.545 385.312 746.808 388.996 751.097 392.681C746.551 397.261 741.562 401.413 736.922 405.904C731.218 411.426 725.844 417.365 720.398 423.144C719.646 423.649 720.088 423.485 719.034 423.521C708.852 413.447 699.285 402.914 688.86 393.03C698.482 383.117 709.061 370.641 719.531 361.916Z" fill="#F4AD4B"/>
<path d="M209.136 804.727C212.784 804.659 217.848 803.922 220.809 806.322C222.447 814 222.752 886.724 221.04 891.005C219.968 892.093 218.687 892.159 217.253 892.413C213.546 892.469 207.753 893.142 204.668 890.901C203.469 884.539 203.353 809.189 204.889 806.212C206.255 805.12 207.471 804.991 209.136 804.727Z" fill="#9999D1"/>
<path d="M435.854 805.091C438.925 805.006 442.716 804.511 445.697 805.237C447.228 805.61 448.343 806.295 449.127 807.713C449.76 808.859 449.895 810.501 449.969 811.771C450.439 819.867 450.689 887.49 449.812 889.666C449.291 890.957 448.116 891.4 446.937 891.956C444.144 892.399 441.202 892.667 438.371 892.453C436.086 892.279 434.295 891.799 432.792 889.989C432.065 885.238 431.899 810.209 432.383 808.387C432.914 806.388 434.175 805.976 435.854 805.091Z" fill="#9999D1"/>
<path d="M508.756 72.5024C509.156 72.4784 509.555 72.4515 509.956 72.4443C511.923 72.4087 513.859 72.4261 515.258 74.0407C516.403 75.3608 516.347 77.2164 516.455 78.8745C517.187 90.1301 516.58 101.74 516.55 113.036C516.513 126.333 516.947 139.752 516.478 153.028C516.378 155.875 515.171 156.912 513.155 158.717C512.929 158.746 512.704 158.787 512.476 158.802C510.813 158.913 508.825 158.59 507.608 157.364C506.836 156.587 506.58 155.764 506.474 154.715C506.087 150.889 506.388 146.794 506.344 142.937C506.207 133.738 506.118 124.537 506.078 115.337L505.97 90.06C505.956 85.7066 505.659 81.1267 506.061 76.8011C506.257 74.6976 507.201 73.8049 508.756 72.5024Z" fill="#F4AD4B"/>
<path d="M394.144 108.069C395.362 108.017 396.786 107.866 397.967 108.208C398.899 108.477 399.456 109.028 400.033 109.778C405.171 116.464 409.483 124.481 414.138 131.588C422.014 143.614 430.424 155.387 437.824 167.713C438.889 169.488 440.137 171.169 439.355 173.332C438.615 175.38 436.596 176.305 434.812 177.267C434.329 177.313 434.003 177.37 433.499 177.28C432.282 177.061 431.256 176.303 430.454 175.397C425.415 169.706 421.299 161.968 417.103 155.578L394.32 121.416C392.597 118.809 389.84 115.57 390.695 112.251C391.214 110.24 392.461 109.138 394.144 108.069Z" fill="#F4AD4B"/>
<path d="M626.596 108.321C628.664 108.312 630.696 108.292 632.278 109.842C633.222 110.768 633.586 112.12 633.574 113.412C633.562 114.657 633.12 115.556 632.5 116.605C627.297 125.402 620.682 133.738 614.965 142.248L601.191 162.95C598.211 167.47 595.215 173.278 591.307 176.969C588.989 176.969 586.374 176.885 584.754 174.936C584.035 174.072 583.711 172.806 583.795 171.698C584.073 168.037 621.198 113.015 626.596 108.321Z" fill="#F4AD4B"/>
</svg>