<?xml version="1.0" encoding="utf-8" ?>
<svg xmlns="http://www.w3.org/2000/svg" xmlns:xlink="http://www.w3.org/1999/xlink" width="1024" height="1536">
	<path fill="#FEFEFE" d="M0 0L1024 0L1024 1534.69C1023.17 1535.21 1022.35 1535.57 1021.39 1535.79C1015.2 1537.19 989.131 1536 981.169 1536L865.91 1536.01L391.421 1536.01L132.471 1536.01L47.604 1536C33.1619 1536 18.5072 1536.57 4.09208 1535.91C2.50848 1535.84 1.34434 1535.54 0 1534.69L0 0Z"/>
	<defs>
		<linearGradient id="gradient_0" gradientUnits="userSpaceOnUse" x1="726.66766" y1="747.41046" x2="284.63019" y2="304.83463">
			<stop offset="0" stop-color="#513993"/>
			<stop offset="1" stop-color="#DAC9EA"/>
		</linearGradient>
	</defs>
	<path fill="url(#gradient_0)" d="M270.884 577.34C271.232 576.994 271.316 576.938 271.628 576.468C294.167 542.438 239.497 538.673 233.062 512.961C228.287 493.881 254.117 479.293 264.011 465.435C271.625 454.77 276.734 442.075 281.204 429.849C286.256 416.031 289.969 400.92 289.719 386.12C289.579 377.829 288.546 369.546 288.813 361.245C289.66 334.866 300.997 305.336 314.638 282.991C343.943 234.986 390.844 202.661 445.244 189.671C487.729 179.94 532.061 181.943 573.495 195.466C583.506 198.663 594.272 202.412 603.247 207.943C651.762 229.58 689.793 274.743 708.534 323.802C728.583 376.286 724.313 437.103 701.523 488.107C692.738 507.768 680.721 525.873 670.591 544.853C663.446 558.242 655.989 571.907 650.006 585.846C628.524 635.9 619.543 691.966 627.991 746.039C668.572 752.44 710.434 763.583 746.518 783.726C751.809 786.68 758.92 790.354 763.161 794.631C777.361 804.259 790.815 818.828 794.014 836.233C796.526 849.897 792.359 863.262 784.563 874.504C756.109 915.535 682.142 933.402 635.412 941.534C540.362 958.075 360.862 956.237 280.506 899.902C265.28 889.228 251.151 874.576 247.285 855.796C246.417 853.966 246.028 851.484 245.84 849.478C244.491 835.1 250.145 820.576 259.309 809.678C283.344 781.094 324.833 766.442 359.501 756.066C375.533 751.268 393.322 746.464 410.046 745.1C412.459 729.357 412.01 713.201 414.944 697.591C392.071 704.676 353.742 715.643 330.454 706.24C302.149 694.813 314.739 659.867 305.279 638.165C302.543 631.89 298.821 629.046 292.572 626.556C290.687 626.217 288.963 625.633 287.279 624.699C283.472 622.588 280.787 618.618 279.586 614.499C277.878 608.641 278.616 601.67 281.586 596.348C277.981 594.046 274.634 591.304 271.245 588.699C270.599 586.821 269.921 584.881 269.48 582.945C268.918 580.484 269.645 579.304 270.884 577.34Z"/>
	<path fill="#FEFEFE" d="M247.285 855.796C246.417 853.966 246.028 851.484 245.84 849.478C244.491 835.1 250.145 820.576 259.309 809.678C283.344 781.094 324.833 766.442 359.501 756.066C375.533 751.268 393.322 746.464 410.046 745.1C409.369 749.772 408.628 754.435 407.821 759.087C406.945 763.443 406.312 768.049 405.088 772.309L401.933 783.9C400.243 790.151 398.579 796.392 396.543 802.54C395.211 806.411 394.062 810.524 392.408 814.261C389.71 821.886 387.248 829.743 383.948 837.127C440.201 873.114 493.73 879.357 559.113 871.236C559.289 871.282 559.461 871.346 559.641 871.375C562.727 871.875 567.75 870.536 570.893 870.017C600.605 865.109 631.181 850.842 655.573 833.467C651.995 826.862 649.763 819.884 647.507 812.755C644.899 809.769 643.669 804.604 642.384 800.869C639.949 793.833 637.094 786.591 635.73 779.267L633.407 772.665C632.274 769.313 631.589 765.746 630.773 762.3L630.183 760.355L627.991 746.039C668.572 752.44 710.434 763.583 746.518 783.726C751.809 786.68 758.92 790.354 763.161 794.631C777.361 804.259 790.815 818.828 794.014 836.233C796.526 849.897 792.359 863.262 784.563 874.504C756.109 915.535 682.142 933.402 635.412 941.534C540.362 958.075 360.862 956.237 280.506 899.902C265.28 889.228 251.151 874.576 247.285 855.796Z"/>
	<path fill="#FDD95E" d="M247.285 855.796C246.417 853.966 246.028 851.484 245.84 849.478C244.491 835.1 250.145 820.576 259.309 809.678C283.344 781.094 324.833 766.442 359.501 756.066C375.533 751.268 393.322 746.464 410.046 745.1C409.369 749.772 408.628 754.435 407.821 759.087C406.945 763.443 406.312 768.049 405.088 772.309C366.559 777.528 300.484 797.739 276.282 829.712C272.291 834.984 269.847 840.184 267.942 846.473C271.275 857.747 277.556 866.396 286.775 873.693C307.046 889.74 335.079 898.78 359.761 905.214C436.402 925.193 522.236 929.274 600.943 919.941C645.21 914.692 731.907 898.229 760.632 861.272C765.891 854.506 769.633 846.989 768.588 838.23C767.93 836.852 767.215 835.502 766.444 834.185C746.404 800.505 669.724 781.929 633.407 772.665C632.274 769.313 631.589 765.746 630.773 762.3L630.183 760.355L627.991 746.039C668.572 752.44 710.434 763.583 746.518 783.726C751.809 786.68 758.92 790.354 763.161 794.631C777.361 804.259 790.815 818.828 794.014 836.233C796.526 849.897 792.359 863.262 784.563 874.504C756.109 915.535 682.142 933.402 635.412 941.534C540.362 958.075 360.862 956.237 280.506 899.902C265.28 889.228 251.151 874.576 247.285 855.796Z"/>
	<path fill="#FBBB17" d="M247.285 855.796C251.178 859.69 253.97 865.715 257.681 870.128C294.646 914.076 390.92 931.18 446.477 936.203C536.457 944.337 692.174 940.444 763.56 880.583C775.227 870.8 784.509 857.817 785.703 842.223C786.731 828.802 780.799 815.568 772.206 805.521C769.279 802.098 765.793 799.255 762.874 795.794L763.161 794.631C777.361 804.259 790.815 818.828 794.014 836.233C796.526 849.897 792.359 863.262 784.563 874.504C756.109 915.535 682.142 933.402 635.412 941.534C540.362 958.075 360.862 956.237 280.506 899.902C265.28 889.228 251.151 874.576 247.285 855.796Z"/>
	<path fill="#FBBB17" d="M267.942 846.473C267.839 846.244 267.719 846.023 267.632 845.788C265.078 838.884 266.215 830.068 269.482 823.625C283.469 796.04 340.114 776.484 367.769 768.944C380.691 765.422 394.301 763.465 406.985 759.362L407.821 759.087C406.945 763.443 406.312 768.049 405.088 772.309C366.559 777.528 300.484 797.739 276.282 829.712C272.291 834.984 269.847 840.184 267.942 846.473Z"/>
	<path fill="#FBBB17" d="M630.773 762.3C667.846 768.894 741.129 788.293 763.454 820.307C766.842 825.167 769.752 831.692 768.703 837.728C768.673 837.897 768.626 838.062 768.588 838.23C767.93 836.852 767.215 835.502 766.444 834.185C746.404 800.505 669.724 781.929 633.407 772.665C632.274 769.313 631.589 765.746 630.773 762.3Z"/>
	<path fill="#FDD95E" d="M635.73 779.267C652.962 783.94 669.824 790.034 684.619 800.287C686.295 801.449 689.225 803.098 690.283 804.833C690.288 804.972 690.287 805.111 690.298 805.249C690.531 808.283 692.732 811.135 694.108 813.816C701.586 828.378 701.415 840.184 690.726 853.288C666.947 882.442 602.081 892.203 566.313 895.554C507.225 901.089 390.817 897.618 345.488 859.833C343.337 858.04 334.968 847.816 333.909 847.473L333.441 848.075C333.363 847.885 333.323 847.68 333.281 847.479C331.257 837.672 332.853 828.041 338.432 819.706C349.858 802.638 382.167 787.934 401.933 783.9C400.243 790.151 398.579 796.392 396.543 802.54C395.211 806.411 394.062 810.524 392.408 814.261C389.71 821.886 387.248 829.743 383.948 837.127C440.201 873.114 493.73 879.357 559.113 871.236C559.289 871.282 559.461 871.346 559.641 871.375C562.727 871.875 567.75 870.536 570.893 870.017C600.605 865.109 631.181 850.842 655.573 833.467C651.995 826.862 649.763 819.884 647.507 812.755C644.899 809.769 643.669 804.604 642.384 800.869C639.949 793.833 637.094 786.591 635.73 779.267Z"/>
	<defs>
		<linearGradient id="gradient_1" gradientUnits="userSpaceOnUse" x1="517.73126" y1="880.1297" x2="518.72272" y2="813.2865">
			<stop offset="0" stop-color="#E1D9D0"/>
			<stop offset="1" stop-color="white"/>
		</linearGradient>
	</defs>
	<path fill="url(#gradient_1)" d="M647.507 812.755C660.495 817.507 672.212 824.469 681.879 834.453C679.19 844.28 674.061 849.668 665.277 854.719C604.651 889.576 469.555 887.384 402.371 868.795C388.776 865.033 365.562 857.817 358.258 844.954C356.668 842.155 355.757 839.31 356.447 836.088C365.586 824.919 379.538 819.837 392.408 814.261C389.71 821.886 387.248 829.743 383.948 837.127C440.201 873.114 493.73 879.357 559.113 871.236C559.289 871.282 559.461 871.346 559.641 871.375C562.727 871.875 567.75 870.536 570.893 870.017C600.605 865.109 631.181 850.842 655.573 833.467C651.995 826.862 649.763 819.884 647.507 812.755Z"/>
	<path fill="#FBBB17" d="M642.384 800.869C649.494 799.616 662.254 807.613 668.178 811.81C673.996 815.933 680.853 822.181 681.866 829.654C682.08 831.236 681.979 832.866 681.879 834.453C672.212 824.469 660.495 817.507 647.507 812.755C644.899 809.769 643.669 804.604 642.384 800.869Z"/>
	<path fill="#FBBB17" d="M396.543 802.54C395.211 806.411 394.062 810.524 392.408 814.261C379.538 819.837 365.586 824.919 356.447 836.088C356.372 835.936 356.275 835.794 356.22 835.633C355.535 833.602 356.654 830.946 357.496 829.086C363.114 816.682 384.335 807.156 396.543 802.54Z"/>
	<path fill="#FBBB17" d="M690.283 804.833C699.027 811.054 706.184 820.792 707.962 831.533C709.651 841.735 706.531 851.316 700.487 859.534C679.598 887.939 627.741 898.284 595.121 902.974C530.26 912.299 403.457 912.791 350.629 873.291C342.107 866.918 335.424 858.731 333.441 848.075L333.909 847.473C334.968 847.816 343.337 858.04 345.488 859.833C390.817 897.618 507.225 901.089 566.313 895.554C602.081 892.203 666.947 882.442 690.726 853.288C701.415 840.184 701.586 828.378 694.108 813.816C692.732 811.135 690.531 808.283 690.298 805.249C690.287 805.111 690.288 804.972 690.283 804.833Z"/>
	<path fill="#9A83C2" d="M270.884 577.34C292.321 575.269 306.397 580.057 326.001 587.255C330.431 588.881 336.022 590.254 339.962 592.746C338.025 593.273 335.476 593.574 334.232 595.26C318.328 600.476 297.506 602.058 281.586 596.348C277.981 594.046 274.634 591.304 271.245 588.699C270.599 586.821 269.921 584.881 269.48 582.945C268.918 580.484 269.645 579.304 270.884 577.34Z"/>
	<path fill="#9A83C2" d="M630.183 760.355L630.773 762.3C631.589 765.746 632.274 769.313 633.407 772.665L635.73 779.267C637.094 786.591 639.949 793.833 642.384 800.869C643.669 804.604 644.899 809.769 647.507 812.755C649.763 819.884 651.995 826.862 655.573 833.467C631.181 850.842 600.605 865.109 570.893 870.017C567.75 870.536 562.727 871.875 559.641 871.375C559.461 871.346 559.289 871.282 559.113 871.236L559.276 870.14C561.536 869.67 563.747 869.28 566.051 869.081L566.959 869.01C577.661 868.139 589.323 864.186 599.428 860.695C606.17 858.365 617.005 855.554 622.483 850.95C628.124 846.21 638.749 822.292 645.37 814.642C646.73 813.071 626.913 768.204 630.183 760.355Z"/>
	<path fill="#FDD95E" d="M615.469 432.521C644.464 430.144 669.924 451.652 672.418 480.63C674.912 509.608 653.502 535.148 624.527 537.758C595.387 540.383 569.663 518.829 567.155 489.685C564.647 460.542 586.309 434.912 615.469 432.521Z"/>
	<defs>
		<linearGradient id="gradient_2" gradientUnits="userSpaceOnUse" x1="642.8631" y1="516.0329" x2="595.92993" y2="453.53647">
			<stop offset="0" stop-color="#8A6DB9"/>
			<stop offset="1" stop-color="#F2DDF1"/>
		</linearGradient>
	</defs>
	<path fill="url(#gradient_2)" d="M599.9 450.927C613.863 442.831 631.352 444.063 644.042 454.036C656.732 464.009 662.058 480.708 657.487 496.185C652.915 511.661 639.368 522.788 623.295 524.269C610.93 525.408 598.752 520.656 590.427 511.445C579.026 498.83 577.001 480.328 585.404 465.547C588.855 459.476 593.858 454.43 599.9 450.927Z"/>
	<path fill="#9A83C2" d="M590.427 511.445C592.416 510.84 594.28 511.518 596.089 512.516C600.609 515.007 604.468 517.596 609.646 518.549C610.971 518.793 612.151 519.306 613.375 519.85L613.212 520.623C610.159 521.075 607.771 520.737 604.772 520.187C609.259 524.828 618.291 520.401 623.295 524.269C610.93 525.408 598.752 520.656 590.427 511.445Z"/>
	<path fill="#483D92" d="M408.748 432.071L410.331 433.2L410.331 434.948C405.968 443.061 393.909 449.379 385.494 452.099C370.484 457 354.152 455.836 339.99 448.856C338.108 447.821 335.112 446.203 334.33 444.077C333.773 442.563 333.889 440.933 334.736 439.573C336.101 437.381 339.76 435.889 342.241 435.708C348.291 435.266 355.538 437.74 361.639 438.488C377.798 440.469 393.387 436.665 408.748 432.071Z"/>
	<path fill="#9A83C2" d="M308.762 512.412L309.344 512.44C311.01 513.914 312.315 515.705 312.96 517.859C314.154 521.845 313.877 526.069 311.892 529.764C309.445 534.323 304.997 537.061 300.151 538.516C289.913 541.589 268.978 539.495 259.525 534.07C256.878 532.551 255.38 530.914 254.624 527.947C254.723 526.254 254.958 524.976 256.156 523.695C258.584 521.102 262.606 520.378 266.018 520.29C274.591 520.07 281.712 522.765 287.909 528.558C288.17 530.837 288.295 531.283 287.29 533.307L286.261 533.444C286.289 532.219 286.252 531.589 285.667 530.502C279.528 526.966 262.125 525.881 255.187 527.615C254.934 528.801 255.349 529.172 255.822 530.255C259.554 533.575 266.964 536.23 271.966 536.848C281.415 538.014 290.148 541.085 299.787 537.98C302.83 535.336 310.159 529.55 311.254 525.66C312.599 520.88 311.107 516.514 308.762 512.412Z"/>
	<path fill="#E4DAF6" d="M401.096 1184.51C415.134 1186.27 435.82 1196.57 449.709 1202.07L506.006 1224.11L586.434 1255.82C598.536 1260.59 611.121 1264.78 622.979 1270.1C625.779 1271.36 628.795 1272.74 630.902 1275.03L630.407 1276.8C628.471 1279 626.179 1280.5 623.632 1281.91C616.496 1285.88 608.897 1289.15 601.657 1292.97L512.476 1338.9C498.242 1346.21 391.543 1402.67 384.476 1403.44C384.238 1403.74 383.885 1404.23 383.581 1404.51C379.22 1408.53 306.966 1443.6 298.338 1447.14C295.791 1448.19 293.269 1449 290.478 1448.78C288.896 1447.06 288.657 1445.43 289.539 1443.19C293.204 1433.86 308.738 1415.07 315.04 1406.06C333.218 1380.1 350.978 1353.62 368.378 1327.13C375.212 1316.72 383.168 1306.37 389.219 1295.54C390.114 1293.94 390.699 1292.7 390.602 1290.83C389.196 1289.43 388.665 1289.32 386.621 1289.56C374.215 1290.99 336.23 1311.35 325.748 1309.22C324.231 1307.83 324.139 1307.6 323.657 1305.59C326.282 1294.99 352.741 1258.06 359.781 1246.98C371.307 1228.83 383.135 1208.44 395.286 1190.97C396.947 1188.58 399.003 1186.52 401.096 1184.51Z"/>
	<path fill="#FDD95E" d="M740.905 218.203C745.593 216.706 747.949 216.312 752.531 218.674C762.376 223.751 771.357 232.34 779.545 239.699C818.974 275.141 848.121 318.919 863.917 369.65C884.37 436.45 877.772 508.608 845.543 570.594C826.737 607.023 799.909 638.711 767.078 663.273C760.625 668.186 753.256 674.535 745.435 677.023C742.128 678.076 739.068 678.243 735.948 676.516C734.583 675.76 733.398 674.776 732.238 673.743C730.022 671.281 728.682 668.103 728.706 664.759C728.732 661.117 730.772 657.854 733.177 655.259C738.141 649.903 744.925 646.742 750.651 642.301C759.828 635.184 768.726 627.084 776.966 618.904C822.702 572.662 848.293 510.215 848.154 445.183C848.365 380.117 822.928 319.997 777.351 273.689C769.836 266.054 762.224 258.643 753.956 251.813C748.734 247.499 742.528 243.747 737.828 238.883C735.496 236.47 733.852 232.465 734.029 229.088C734.288 224.167 737.485 221.237 740.905 218.203Z"/>
	<path fill="#FBBB17" d="M740.905 218.203C745.593 216.706 747.949 216.312 752.531 218.674C762.376 223.751 771.357 232.34 779.545 239.699C818.974 275.141 848.121 318.919 863.917 369.65C884.37 436.45 877.772 508.608 845.543 570.594C826.737 607.023 799.909 638.711 767.078 663.273C760.625 668.186 753.256 674.535 745.435 677.023C742.128 678.076 739.068 678.243 735.948 676.516C734.583 675.76 733.398 674.776 732.238 673.743C734.775 671.264 739.083 669.214 742.122 667.295C748.549 663.237 754.872 659.162 760.809 654.405C795.618 626.523 824.197 591.386 842.352 550.503C872.81 481.459 871.514 402.547 838.805 334.541C824.828 305.788 805.851 280.439 783.673 257.573C771 244.507 755.771 234.995 743.843 223.139C742.512 221.815 741.741 220.536 741.098 218.774C741.029 218.585 740.969 218.393 740.905 218.203Z"/>
	<path fill="#FDD95E" d="M737.495 327.253C741.473 325.556 744.465 324.428 748.77 326.052C767.747 333.207 789.644 370.508 797.167 388.645C812.651 425.829 812.792 467.626 797.559 504.914C790.892 521.026 766.909 560.729 751.19 566.749C747.665 568.099 744.065 567.69 740.689 566.093C740.413 565.962 740.142 565.819 739.868 565.682C736.535 562.519 735.438 559.336 734.06 555.081C736.447 545.032 743.295 540.295 749.727 532.873C784.909 492.28 791.626 429.983 764.806 383.372C760.271 375.49 755.041 367.684 748.94 360.92C744.256 355.728 738.631 350.809 734.703 345.05C733.171 342.804 731.865 340.206 731.796 337.435C731.685 332.987 734.564 330.117 737.495 327.253Z"/>
	<path fill="#FBBB17" d="M737.495 327.253C741.473 325.556 744.465 324.428 748.77 326.052C767.747 333.207 789.644 370.508 797.167 388.645C812.651 425.829 812.792 467.626 797.559 504.914C790.892 521.026 766.909 560.729 751.19 566.749C747.665 568.099 744.065 567.69 740.689 566.093C740.413 565.962 740.142 565.819 739.868 565.682C744.399 557.611 753.763 550.301 760.042 543.354C780.472 520.75 794.559 489.575 797.124 459.103C800.005 420.529 787.596 382.37 762.576 352.865C754.97 343.932 745.368 336.801 737.987 327.857L737.495 327.253Z"/>
	<path fill="#483D92" d="M664.849 1060.59C668.772 1062.3 680.133 1061.7 684.249 1060.26C687.469 1067.2 723.607 1112.33 728.43 1114.57L728.489 1060.1C729.271 1060.56 729.806 1060.88 730.702 1061.09C734.589 1061.97 745.857 1062.24 749.314 1060.1L749.255 1145.23L748.977 1148.15C748.702 1148.35 748.384 1148.61 748.064 1148.76C744.222 1150.51 733.358 1149.81 729.435 1148.26C727.964 1147.69 687.926 1099.04 685.69 1095.04L685.393 1148.19C684.982 1148.37 684.879 1148.42 684.408 1148.58C680.169 1149.99 668.711 1150 664.625 1147.97L664.347 1093.09C664.285 1082.42 663.596 1071.17 664.849 1060.59Z"/>
	<path fill="#483D92" d="M531.65 1060.29C534.034 1065.59 573.298 1113.15 576.905 1114.73C576.545 1096.5 576.872 1078.22 576.919 1059.99C577.711 1060.47 578.253 1060.79 579.162 1061.01C583.097 1061.95 593.661 1062.11 597.214 1059.97C597.565 1088.35 597.621 1116.74 597.382 1145.12C597.27 1146.17 597.051 1147.21 596.863 1148.25C596.541 1148.43 596.205 1148.65 595.852 1148.78C591.472 1150.4 580.781 1149.93 576.46 1148.1C574.282 1146.87 538.24 1101.22 534.694 1095.83C534.861 1113.17 534.876 1130.51 534.739 1147.85C533.936 1148.36 533.161 1148.72 532.225 1148.93C528.252 1149.83 517.309 1150.04 513.801 1147.85L513.771 1093.4C513.774 1082.57 513.346 1071.46 514.266 1060.67C518.877 1061.86 527.24 1061.97 531.65 1060.29Z"/>
	<path fill="#483D92" d="M807.294 1059.77C811.396 1061.59 819.351 1060.59 824.093 1061.06C834.314 1062.06 844.271 1065.5 850.672 1073.95C852.83 1076.8 854.409 1080.22 856.695 1082.92L857.195 1083.5C856.811 1083.87 856.398 1084.32 855.953 1084.64C852.565 1087.09 840.661 1091.65 836.59 1091.25C832.126 1088.31 830.821 1082.67 825.109 1080.33C819.079 1077.85 811.845 1077.37 805.828 1080.1C800.093 1082.71 795.724 1087.94 793.577 1093.8C790.694 1101.67 791.105 1111.39 794.815 1118.93C797.495 1124.37 802.026 1128.73 807.857 1130.61C814.004 1132.58 821.832 1131.73 827.497 1128.66C832.981 1125.68 834.993 1120.93 836.759 1115.22C836.025 1115.66 835.246 1116.06 834.416 1116.28C830.089 1117.42 816.92 1117.56 813.243 1115.36C813.216 1109.88 813.247 1104.44 813.572 1098.97C820.547 1099.85 853.352 1101.16 858.342 1098.19C858.361 1105.73 858.789 1113.75 856.995 1121.12C854.665 1130.69 848.191 1138.83 839.811 1143.86C828.85 1150.45 815.255 1151.95 802.939 1148.88C791.368 1145.99 781.534 1139.1 775.504 1128.73C769.14 1117.78 768.075 1103.29 771.5 1091.2C775.27 1077.9 783.977 1069.21 796.517 1063.97C799.935 1062.54 803.673 1061.85 806.894 1060.01C807.029 1059.93 807.161 1059.85 807.294 1059.77Z"/>
	<path fill="#483D92" d="M301.761 1059.07C306.565 1061.1 314.929 1059.35 320.377 1060.43C325.759 1061.5 330.652 1064.74 335.977 1066.15C336.136 1066.2 336.296 1066.23 336.455 1066.27C334.883 1071.32 332.18 1078.03 328.878 1082.2C323.705 1083.01 316.395 1078.2 310.669 1078.03C306.903 1077.92 303.417 1079.35 300.699 1081.93C297.631 1091.21 330.952 1096.87 337.729 1113.59C340.201 1119.69 339.823 1126.83 337.21 1132.82C333.927 1140.35 327.501 1145.63 319.873 1148.52C317.112 1149.56 313.772 1150.57 310.958 1149.32C306.688 1151.85 298.411 1150.82 293.683 1149.85C287.273 1148.54 280.289 1146.17 276.498 1140.52C279.793 1137.16 282.874 1127.41 284.418 1122.86C285.509 1124.16 286.641 1125.41 288.047 1126.38C293.673 1130.23 302.74 1132.42 309.443 1130.76C312.154 1130.08 314.288 1128.47 315.795 1126.16C317.149 1114.63 288.85 1110.1 280.299 1094.67C277.182 1089.05 277.144 1083.21 278.967 1077.14C282.723 1064.63 291.732 1064.72 301.297 1059.34C301.453 1059.25 301.606 1059.16 301.761 1059.07Z"/>
	<path fill="#483D92" d="M438.638 1060.66C444.639 1062.11 485.849 1062.41 489.951 1059.97L489.929 1077.91C489.552 1078.12 488.923 1078.5 488.475 1078.65C484.198 1080.05 463.921 1079.93 459.916 1077.97L459.903 1093.64C460.279 1093.86 460.853 1094.23 461.295 1094.38C465.581 1095.89 480.504 1095.71 484.427 1093.68C484.491 1099.51 484.413 1105.35 484.195 1111.18C483.817 1111.38 483.25 1111.71 482.813 1111.85C478.046 1113.39 464.389 1113.07 459.886 1111.12L459.906 1124.06C459.892 1125.91 459.647 1127.87 460.666 1129.49C466.411 1130.62 485.848 1131.2 490.586 1128.7L490.609 1147.89C489.969 1148.25 489.793 1148.4 489.141 1148.63C485.188 1150.03 441.306 1149.38 438.129 1147.89L438.112 1091.3C438.115 1081.3 437.373 1070.57 438.638 1060.66Z"/>
	<path fill="#483D92" d="M353.54 1060.6C353.675 1060.65 353.807 1060.71 353.943 1060.76C358.228 1062.24 415.411 1061.84 419.11 1060.17L419.285 1078.81C418.458 1079.33 417.663 1079.69 416.7 1079.9C412.377 1080.84 400.511 1080.98 396.693 1078.77C396.261 1093.87 396.083 1108.96 396.159 1124.06L396.119 1147.77C395.717 1147.99 395.149 1148.34 394.686 1148.5C391 1149.73 378.032 1149.51 374.586 1147.6L374.336 1079.23C373.66 1079.61 373.173 1079.89 372.401 1080.04C368.098 1080.88 356.881 1081.08 353.101 1078.78C353.075 1072.72 352.876 1066.63 353.54 1060.6Z"/>
	<path fill="#483D92" d="M165.83 1060.64C166.164 1060.77 166.651 1060.96 167.019 1061.05C171.181 1062.01 183.947 1062.21 187.409 1060.07C187.62 1082.77 187.681 1105.47 187.591 1128.18C188.328 1128.63 188.961 1129.02 189.817 1129.21C194.565 1130.3 215.296 1130.54 219.124 1128.32C219.152 1132.73 220.373 1144.3 218.234 1147.6C217.724 1147.95 217.299 1148.24 216.691 1148.4C211.897 1149.71 168.481 1149.35 165.535 1147.68C165.647 1129.24 165.571 1110.8 165.307 1092.36C165.211 1082.34 163.93 1070.4 165.83 1060.64Z"/>
	<path fill="#483D92" d="M235.505 1060.67C235.798 1060.76 236.22 1060.9 236.537 1060.96C241.113 1061.85 253.468 1062.29 257.35 1059.87L257.26 1147.16L256.194 1148.07C255.916 1148.18 255.641 1148.31 255.36 1148.42C251.466 1149.94 238.953 1149.69 235.069 1147.86L235.115 1091.22C235.13 1081.14 234.574 1070.7 235.505 1060.67Z"/>
	<path fill="#483D92" d="M620.302 1060.66C620.607 1060.75 621.027 1060.89 621.355 1060.96C625.805 1061.84 637.626 1062.3 641.41 1059.98C641.447 1072.63 642.864 1141.92 641.035 1147.78C640.188 1148.32 639.366 1148.71 638.378 1148.93C634.323 1149.86 623.778 1149.95 620.223 1147.74C619.155 1131.16 619.692 1114.16 619.663 1097.53C619.642 1085.53 618.674 1072.52 620.302 1060.66Z"/>
</svg>
